<?xml version="1.0" encoding="UTF-8"?>
<svg version="1.1" xmlns="http://www.w3.org/2000/svg" width="500" height="500">
<path d="M0 0 C0.41827407 26.31587389 0.41827407 26.31587389 -2 37 C-2.41958984 38.88332031 -2.41958984 38.88332031 -2.84765625 40.8046875 C-7.13492544 59.26004157 -13.30457648 78.41741893 -26 93 C-26.66 93 -27.32 93 -28 93 C-28 93.66 -28 94.32 -28 95 C-28.66 95 -29.32 95 -30 95 C-30.25136719 95.58265625 -30.50273437 96.1653125 -30.76171875 96.765625 C-35.45422964 105.23286862 -45.89441487 110.39433537 -54 115 C-54.91136719 115.52464844 -55.82273437 116.04929687 -56.76171875 116.58984375 C-64.9011908 120.96727736 -73.56867106 123.67841189 -82.33984375 126.484375 C-85.61888667 127.53356511 -88.82956994 128.64975421 -92 130 C-92.33 132.64 -92.66 135.28 -93 138 C-87.48401693 138.50145301 -83.37271976 136.12704189 -78.5 133.8125 C-75.27789548 132.76531603 -72.36903828 132.9488347 -69 133 C-61.68901708 146.25926784 -56.00744061 160.90508946 -54 176 C-53.89042969 176.79792969 -53.78085937 177.59585938 -53.66796875 178.41796875 C-49.35431874 218.27609485 -57.83322589 253.94782308 -82 286 C-82.66 286.99 -83.32 287.98 -84 289 C-84.66 289 -85.32 289 -86 289 C-86.37125 289.8353125 -86.37125 289.8353125 -86.75 290.6875 C-88.22924818 293.42410913 -89.93467439 295.67650869 -92 298 C-92.66 298 -93.32 298 -94 298 C-94 298.66 -94 299.32 -94 300 C-95.4609375 301.5078125 -95.4609375 301.5078125 -97.375 303.125 C-98.00148438 303.66382813 -98.62796875 304.20265625 -99.2734375 304.7578125 C-101 306 -101 306 -103 306 C-103 306.66 -103 307.32 -103 308 C-104.90734617 309.48888231 -106.80370095 310.84764673 -108.8125 312.1875 C-109.70001953 312.78751831 -109.70001953 312.78751831 -110.60546875 313.3996582 C-111.82124638 314.21805787 -113.03952845 315.03274901 -114.26025391 315.84375 C-115.79812484 316.86583206 -117.32746947 317.900718 -118.85546875 318.9375 C-145.97047958 336.88066817 -180.75976921 343.10282813 -212.58349609 336.80273438 C-234.81570855 332.04647158 -253.94537614 322.71065421 -272 309 C-272.94617188 308.30132812 -273.89234375 307.60265625 -274.8671875 306.8828125 C-279.45694026 303.43692336 -279.45694026 303.43692336 -281 302 C-281 301.34 -281 300.68 -281 300 C-281.66 300 -282.32 300 -283 300 C-284.515625 298.49609375 -284.515625 298.49609375 -286.25 296.4375 C-286.86488281 295.71175781 -287.47976563 294.98601562 -288.11328125 294.23828125 C-288.73589844 293.49964844 -289.35851562 292.76101563 -290 292 C-290.88751953 291.00033203 -290.88751953 291.00033203 -291.79296875 289.98046875 C-292.33566406 289.36816406 -292.87835938 288.75585938 -293.4375 288.125 C-293.93121094 287.57070313 -294.42492187 287.01640625 -294.93359375 286.4453125 C-296 285 -296 285 -296 283 C-296.66 283 -297.32 283 -298 283 C-299.23339844 281.38623047 -299.23339844 281.38623047 -300.609375 279.1171875 C-301.1142041 278.28590332 -301.6190332 277.45461914 -302.13916016 276.59814453 C-302.6707373 275.69950684 -303.20231445 274.80086914 -303.75 273.875 C-304.56090088 272.5135083 -304.56090088 272.5135083 -305.38818359 271.12451172 C-309.57815587 263.97111619 -313.12753822 256.79077764 -316 249 C-316.34240723 248.14124268 -316.68481445 247.28248535 -317.03759766 246.39770508 C-318.25199453 242.11034806 -318.39068489 238.12694467 -318.484375 233.69140625 C-318.5084845 232.80645981 -318.53259399 231.92151337 -318.55743408 231.00975037 C-318.60556034 229.14487844 -318.64898797 227.27988001 -318.68798828 225.41479492 C-318.74973343 222.57476101 -318.83288699 219.7359038 -318.91796875 216.89648438 C-318.96223298 215.07815607 -319.00524328 213.25979673 -319.046875 211.44140625 C-319.07279724 210.59953262 -319.09871948 209.757659 -319.12542725 208.89027405 C-319.24490718 201.91337378 -318.57707434 196.06969558 -313.625 190.75 C-313.03976562 190.10546875 -312.45453125 189.4609375 -311.8515625 188.796875 C-306.90869565 184 -306.90869565 184 -304 184 C-304 183.34 -304 182.68 -304 182 C-303.34 182 -302.68 182 -302 182 C-302 181.34 -302 180.68 -302 180 C-301.34 180 -300.68 180 -300 180 C-299.6596875 179.01 -299.6596875 179.01 -299.3125 178 C-297.93128279 174.84293208 -296.21308468 172.25005778 -294.21875 169.453125 C-290.34936384 161.66474516 -290.71702248 153.22104967 -290.79446411 144.72857666 C-290.81278133 142.59218756 -290.81367449 140.45628382 -290.81225586 138.31982422 C-290.8272799 131.32635576 -291.07402502 124.4377735 -291.82080078 117.47851562 C-292.75396599 108.39193721 -292.75396599 108.39193721 -290.2734375 103.8125 C-288.00775005 101.2058228 -285.72127487 99.11751935 -283 97 C-282.38382813 96.43796875 -281.76765625 95.8759375 -281.1328125 95.296875 C-277.49175824 92 -277.49175824 92 -275 92 C-275 91.34 -275 90.68 -275 90 C-273.56982422 88.87426758 -273.56982422 88.87426758 -271.5546875 87.64453125 C-270.81468506 87.19037842 -270.07468262 86.73622559 -269.31225586 86.26831055 C-268.50796143 85.78789307 -267.70366699 85.30747559 -266.875 84.8125 C-266.05330322 84.31854736 -265.23160645 83.82459473 -264.38500977 83.31567383 C-252.12690009 76.0241402 -239.68208762 70.07978242 -226 66 C-224.9473999 65.68023193 -224.9473999 65.68023193 -223.87353516 65.35400391 C-195.48787529 57.16870386 -159.64968134 59.54687788 -133 72 C-132.96132813 73.90458984 -132.96132813 73.90458984 -132.921875 75.84765625 C-132.54670082 88.58370148 -130.8663474 99.70697936 -126.25 111.6875 C-125 115 -125 115 -125 119 C-129.08769878 117.51356408 -132.59799862 115.50227111 -136.3125 113.25 C-152.6146692 103.70922942 -170.05610053 99.40848987 -188.9375 99.5625 C-190.91580811 99.57494751 -190.91580811 99.57494751 -192.93408203 99.58764648 C-202.25990634 99.74982971 -210.28065582 100.49162483 -219 104 C-219.96800537 104.37801758 -219.96800537 104.37801758 -220.95556641 104.76367188 C-229.26844415 108.04398417 -237.03060145 111.93330792 -244.64453125 116.6171875 C-247 118 -247 118 -250 119 C-250 119.66 -250 120.32 -250 121 C-250.66 121 -251.32 121 -252 121 C-252 121.66 -252 122.32 -252 123 C-257.47619048 128 -257.47619048 128 -260 128 C-260 128.66 -260 129.32 -260 130 C-260.66 130 -261.32 130 -262 130 C-262.268125 130.5775 -262.53625 131.155 -262.8125 131.75 C-264.02929189 134.05550043 -265.30333879 136.02056192 -267 138 C-267.66 138 -268.32 138 -269 138 C-269 138.66 -269 139.32 -269 140 C-269.66 140 -270.32 140 -271 140 C-271.22816406 140.63679687 -271.45632813 141.27359375 -271.69140625 141.9296875 C-273.12587672 145.29534061 -274.82435323 148.43052752 -276.58007812 151.63696289 C-280.76272311 159.30339006 -284.26702446 166.38899718 -286 175 C-286.17225098 175.71784668 -286.34450195 176.43569336 -286.52197266 177.17529297 C-290.47699517 194.41829479 -289.58053688 214.22167529 -284 231 C-283.649375 232.11632812 -283.29875 233.23265625 -282.9375 234.3828125 C-280.23557819 242.16960104 -276.25651251 248.9439868 -271.890625 255.8828125 C-270 259 -270 259 -269 262 C-268.34 262 -267.68 262 -267 262 C-265.75977807 263.4781542 -264.58296411 265.00975976 -263.4375 266.5625 C-259.95430918 271.06827894 -256.33372839 274.36008275 -251.6875 277.625 C-250.8521875 278.305625 -250.8521875 278.305625 -250 279 C-250 279.66 -250 280.32 -250 281 C-249.41839111 281.28447998 -248.83678223 281.56895996 -248.23754883 281.86206055 C-246.17496458 282.9110191 -244.19105149 284.03055392 -242.19921875 285.20703125 C-224.80842673 295.30641181 -208.64366966 300.40424955 -188.375 300.375 C-187.71014587 300.37412384 -187.04529175 300.37324768 -186.36029053 300.37234497 C-175.99799207 300.32729692 -166.75653574 299.66681332 -157 296 C-156.0085498 295.6299585 -156.0085498 295.6299585 -154.99707031 295.25244141 C-144.44714762 291.22388443 -135.03172042 285.98726667 -126.29296875 278.76171875 C-124 277 -124 277 -122 277 C-122 276.34 -122 275.68 -122 275 C-121.34 275 -120.68 275 -120 275 C-119.731875 274.401875 -119.46375 273.80375 -119.1875 273.1875 C-118.00082594 271.00152146 -116.90400887 269.58667406 -115 268 C-114.34 268 -113.68 268 -113 268 C-113 267.34 -113 266.68 -113 266 C-112.34 266 -111.68 266 -111 266 C-110.73316406 265.26007813 -110.46632813 264.52015625 -110.19140625 263.7578125 C-109.02481649 261.05744407 -107.73867641 259.18289034 -105.9375 256.875 C-98.47483084 246.43977918 -92.44449904 233.61676926 -90 221 C-89.79890625 220.13375 -89.5978125 219.2675 -89.390625 218.375 C-84.91524399 196.60287618 -88.09236842 172.43802702 -99 153 C-100.46626797 150.86607937 -101.94512215 148.74074275 -103.4375 146.625 C-108.40966589 138.78390409 -108.50331593 130.96356977 -107 122 C-103.61165769 107.35394049 -94.74540869 92.20950764 -85 81 C-84.34 81 -83.68 81 -83 81 C-82.74734375 80.4328125 -82.4946875 79.865625 -82.234375 79.28125 C-77.4456864 70.43126854 -68.54234293 63.81483499 -60.94140625 57.46875 C-58.09148413 55.14950621 -58.09148413 55.14950621 -56 53 C-64.78763721 57.09944366 -72.84021727 61.06256437 -80.1796875 67.53125 C-82 69 -82 69 -84 69 C-84 69.66 -84 70.32 -84 71 C-84.66 71 -85.32 71 -86 71 C-86 71.66 -86 72.32 -86 73 C-87.66666667 74.66666667 -89.33333333 76.33333333 -91 78 C-91.721875 79.093125 -92.44375 80.18625 -93.1875 81.3125 C-93.785625 82.199375 -94.38375 83.08625 -95 84 C-95.66 84 -96.32 84 -97 84 C-97.37898438 85.00740234 -97.37898438 85.00740234 -97.765625 86.03515625 C-99.24888299 89.59779174 -100.99244454 93.00544936 -102.75 96.4375 C-106.49865369 103.83163342 -109.83894227 111.33682975 -113 119 C-114.8359375 118.41015625 -114.8359375 118.41015625 -117 117 C-118.4140625 114.05859375 -118.4140625 114.05859375 -119.625 110.4375 C-120.02976562 109.26058594 -120.43453125 108.08367187 -120.8515625 106.87109375 C-123.26957128 98.99628232 -124.32202691 91.74708095 -124.25 83.5 C-124.25773438 82.61441406 -124.26546875 81.72882813 -124.2734375 80.81640625 C-124.24710825 71.85129629 -122.63885045 64.56948836 -118.5 56.625 C-118.19191406 56.02300781 -117.88382813 55.42101562 -117.56640625 54.80078125 C-116.16573425 52.08960927 -114.69461785 49.54192678 -113 47 C-112.34 47 -111.68 47 -111 47 C-110.773125 46.443125 -110.54625 45.88625 -110.3125 45.3125 C-108.6054547 42.30484876 -106.53214914 40.36700898 -104 38 C-103.42121094 37.45085937 -102.84242188 36.90171875 -102.24609375 36.3359375 C-82.2814005 18.02488551 -52.47336149 13.39175592 -27.12890625 6.64453125 C-23.23319707 5.60531019 -19.34526895 4.54413096 -15.46484375 3.44921875 C-14.62937012 3.21348145 -13.79389648 2.97774414 -12.93310547 2.73486328 C-11.40122787 2.3003843 -9.870233 1.86277542 -8.34033203 1.42138672 C-5.45461541 0.6033609 -3.01714261 0 0 0 Z " fill="#2BA37F" transform="translate(439,51)"/>
<path d="M0 0 C1.08410156 0.24492187 2.16820312 0.48984375 3.28515625 0.7421875 C20.44460955 5.11426917 38.87977825 14.76611616 50 29 C50 29.66 50 30.32 50 31 C50.66 31 51.32 31 52 31 C53.52014586 32.88498086 54.89461107 34.75047139 56.25 36.75 C56.65114014 37.33982666 57.05228027 37.92965332 57.46557617 38.53735352 C71.5007705 59.57748548 75.03242167 82.84152029 71.25 107.5 C68.17820697 122.67827144 61.91029371 135.29928032 52.75 147.6875 C52.21818115 148.40800537 51.6863623 149.12851074 51.13842773 149.87084961 C50.38154663 150.86870483 50.38154663 150.86870483 49.609375 151.88671875 C49.15530273 152.48701904 48.70123047 153.08731934 48.23339844 153.70581055 C47.82637695 154.13289307 47.41935547 154.55997559 47 155 C46.34 155 45.68 155 45 155 C45 155.66 45 156.32 45 157 C41.53846154 160 41.53846154 160 39 160 C39 160.66 39 161.32 39 162 C28.58156394 171.24901977 15.33873109 177.33369132 2 181 C1.19046875 181.22558594 0.3809375 181.45117188 -0.453125 181.68359375 C-23.89799937 187.0287302 -49.03010314 181.47600131 -69.24609375 168.99609375 C-71.55507794 167.39086382 -73.78584692 165.73200135 -76 164 C-76.99 163.34 -77.98 162.68 -79 162 C-79 161.34 -79 160.68 -79 160 C-79.61875 159.690625 -80.2375 159.38125 -80.875 159.0625 C-82.25 158.375 -83.625 157.6875 -85 157 C-85 156.34 -85 155.68 -85 155 C-85.66 155 -86.32 155 -87 155 C-87 154.34 -87 153.68 -87 153 C-87.66 153 -88.32 153 -89 153 C-91.15613818 150.63260125 -92.91637479 147.9340284 -94.75 145.3125 C-95.29205078 144.5380957 -95.83410156 143.76369141 -96.39257812 142.96582031 C-110.60206008 122.23297209 -115.76634036 97.54666881 -111.81640625 72.7421875 C-107.30084718 52.04407462 -96.30250335 35.37963148 -81 21 C-80.34 21 -79.68 21 -79 21 C-79 20.34 -79 19.68 -79 19 C-57.7629745 0.43850527 -27.24983469 -6.29677455 0 0 Z " fill="#27A27D" transform="translate(271,161)"/>
<path d="M0 0 C4.41225997 1.22562777 4.41225997 1.22562777 6.375 3.9375 C6.77372742 6.65202332 6.77372742 6.65202332 6.80737305 9.96948242 C6.82716721 11.21054245 6.84696136 12.45160248 6.86735535 13.73027039 C6.87412509 15.08450163 6.88057196 16.43873453 6.88671875 17.79296875 C6.90356405 19.17875261 6.92171409 20.56452118 6.94111633 21.95027161 C6.98863938 25.59491192 7.01843344 29.23949023 7.04455566 32.88433838 C7.07434983 36.60465746 7.120884 40.32476284 7.16601562 44.04492188 C7.25207478 51.34234194 7.31940803 58.6397775 7.375 65.9375 C10.92853929 67.1220131 13.64513478 67.20391894 17.375 66.9375 C19.55887328 65.35819113 20.27976344 64.45911017 20.76699829 61.79052734 C20.77508514 60.9598877 20.783172 60.12924805 20.79150391 59.2734375 C20.80807037 58.32815186 20.82463684 57.38286621 20.84170532 56.40893555 C20.84495819 55.38711182 20.84821106 54.36528809 20.8515625 53.3125 C20.87493179 51.72659058 20.87493179 51.72659058 20.89877319 50.10864258 C20.94636098 46.71827012 20.97403312 43.32810109 21 39.9375 C21.03669444 36.57561319 21.07761521 33.21383608 21.12265015 29.85205078 C21.14948891 27.7606444 21.17100233 25.66916018 21.18618774 23.57763672 C21.37598663 5.62813801 21.37598663 5.62813801 24 1.1875 C27.5136954 -0.66181337 29.61498271 -0.13679065 33.375 0.9375 C35.77516766 2.59300095 37.15846045 3.86953714 37.75082397 6.79104614 C37.91972815 9.15092457 37.95460396 11.48170225 37.94921875 13.84765625 C37.96338333 14.72916855 37.97754791 15.61068085 37.99214172 16.51890564 C38.03401843 19.34605807 38.04922574 22.17258193 38.0625 25 C38.10159489 28.67847379 38.15086711 32.35679432 38.19921875 36.03515625 C38.20895721 36.93755035 38.21869568 37.83994446 38.22872925 38.76968384 C38.34334751 47.84117603 38.81929891 56.88368605 39.375 65.9375 C43.84754497 67.42834832 47.90245503 67.42834832 52.375 65.9375 C52.37864563 65.15489304 52.38229126 64.37228607 52.38604736 63.56596375 C52.42389999 56.19383032 52.48072046 48.82220378 52.55890274 41.45039654 C52.59842779 37.66035405 52.63059117 33.87054563 52.64599609 30.08032227 C52.66113022 26.42310446 52.69551615 22.76652992 52.74330902 19.10959816 C52.75815668 17.71380006 52.76604296 16.31791013 52.76688385 14.92203331 C52.7692447 12.96833998 52.79855675 11.01473526 52.82910156 9.0612793 C52.84242523 7.3924897 52.84242523 7.3924897 52.85601807 5.68998718 C53.375 2.9375 53.375 2.9375 55.28192139 1.06819153 C57.65923233 -0.21604373 58.78611872 -0.36271305 61.4375 0 C62.10910156 0.07347656 62.78070313 0.14695313 63.47265625 0.22265625 C66.1218312 1.21813678 66.88584956 2.55139378 68.375 4.9375 C68.89916992 7.40307617 68.89916992 7.40307617 69.10546875 10.23046875 C69.18643799 11.31618164 69.26740723 12.40189453 69.35083008 13.52050781 C69.45560669 15.30473145 69.45560669 15.30473145 69.5625 17.125 C69.67984497 18.99236816 69.67984497 18.99236816 69.79956055 20.89746094 C70.41759687 31.57281302 70.60945115 42.25998809 70.67153931 52.9515686 C70.68211111 54.7637536 70.69700755 56.57591894 70.71640015 58.38803101 C70.74028193 60.96207237 70.74255078 63.53524289 70.73828125 66.109375 C70.75195236 67.24700035 70.75195236 67.24700035 70.76589966 68.40760803 C70.70235407 75.94579531 68.60994715 82.76815209 64.3125 89 C63.80589844 89.75410156 63.29929687 90.50820312 62.77734375 91.28515625 C62.31457031 91.83042969 61.85179687 92.37570313 61.375 92.9375 C60.715 92.9375 60.055 92.9375 59.375 92.9375 C59.375 93.5975 59.375 94.2575 59.375 94.9375 C57.66733767 96.24474495 55.90718189 97.48382741 54.125 98.6875 C48.63062004 102.57876395 45.52707787 105.4812664 43.375 111.9375 C41.20075049 139.69000375 44.69795234 168.497361 46.12585449 196.21929932 C46.49341097 203.3644972 46.85514204 210.50994275 47.20896721 217.6558342 C47.37550624 220.97137339 47.55055826 224.28639103 47.72596741 227.60147095 C47.8275896 229.63614795 47.92880286 231.67084544 48.02954102 233.70556641 C48.07988998 234.61261826 48.13023895 235.5196701 48.18211365 236.45420837 C48.59958057 245.24379314 48.57030368 252.57748645 43.375 259.9375 C37.75576478 265.02156996 34.03515189 265.28879974 26.58203125 265.21484375 C22.43282025 264.85602039 20.35501287 263.84110228 17.375 260.9375 C13.00408792 255.14899481 12.21173993 250.92370534 12.26000977 243.83740234 C12.26472337 242.63506486 12.26472337 242.63506486 12.2695322 241.40843773 C12.33229792 233.10364621 12.74276039 224.82889384 13.21484375 216.5390625 C13.30262773 214.92795474 13.38990017 213.31681905 13.47669983 211.70565796 C13.70403305 207.5045083 13.93664299 203.30367062 14.17095947 199.10290527 C14.58767254 191.62363352 14.99712235 184.14396508 15.40234375 176.6640625 C15.46786879 175.45729607 15.46786879 175.45729607 15.53471756 174.22615051 C20.42420036 138.36164899 20.42420036 138.36164899 14.375 104.9375 C11.89671727 102.34527324 9.19403198 100.14741971 6.375 97.9375 C-1.95910366 91.08944056 -9.56373791 83.26708299 -10.84741211 71.98226929 C-11.19305881 66.38731442 -11.09098536 60.78915876 -11 55.1875 C-10.98288265 53.4104859 -10.96620418 51.63346753 -10.94995117 49.85644531 C-10.88812243 44.54874088 -10.77022601 39.24353161 -10.625 33.9375 C-10.6033075 33.14166504 -10.58161499 32.34583008 -10.55926514 31.52587891 C-10.41501815 26.57535377 -10.19899975 21.63322936 -9.9375 16.6875 C-9.8844873 15.44645508 -9.83147461 14.20541016 -9.77685547 12.92675781 C-9.70225098 11.79077148 -9.62764648 10.65478516 -9.55078125 9.484375 C-9.49317627 8.50307617 -9.43557129 7.52177734 -9.3762207 6.51074219 C-7.94941469 1.62334038 -4.90755427 -0.084613 0 0 Z " fill="#2DA37F" transform="translate(71.625,137.0625)"/>
<path d="M0 0 C2.5 0.25 2.5 0.25 4.5 2.25 C4.7561264 4.5333395 4.7561264 4.5333395 4.76501465 7.44639587 C4.77742439 9.1022168 4.77742439 9.1022168 4.79008484 10.79148865 C4.78861198 12.61934654 4.78861198 12.61934654 4.78710938 14.48413086 C4.79394241 15.76490509 4.80077545 17.04567932 4.80781555 18.36526489 C4.82276072 21.16709993 4.83146956 23.96886304 4.83552551 26.77073479 C4.84229703 31.26922861 4.86415028 35.76757567 4.88806152 40.26600647 C4.93302064 49.09663546 4.96379854 57.92728465 4.99217987 66.75798035 C5.03505108 80.07699739 5.08468128 93.39594654 5.15625 106.71484375 C5.16029594 107.48351005 5.16434189 108.25217635 5.16851044 109.04413557 C5.29042965 131.60566466 5.68515373 154.14283457 6.46875 176.69140625 C6.51147537 177.93040113 6.55420074 179.16939602 6.59822083 180.4459362 C6.72085079 183.92195008 6.84966357 187.39765035 6.98242188 190.87329102 C7.03792961 192.37091697 7.03792961 192.37091697 7.09455872 193.89879799 C7.32464451 199.56247121 7.72313211 205.18532133 8.28216076 210.82626534 C8.60340674 214.40052964 8.69862223 217.96381612 8.73828125 221.55078125 C8.746353 222.27565231 8.75442474 223.00052338 8.76274109 223.74736023 C8.77639562 225.25708754 8.78719847 226.7668433 8.79516602 228.27661133 C8.80679059 229.80958204 8.82740358 231.34250912 8.85668945 232.87524414 C8.89939629 235.12152826 8.91552248 237.36664169 8.92578125 239.61328125 C8.94328934 240.29151443 8.96079742 240.96974762 8.97883606 241.66853333 C8.95284909 247.39564123 6.83441354 250.89883229 2.8671875 254.89453125 C-3.76865047 260.08855102 -9.16164171 259.92505523 -17.5 259.25 C-22.42935586 257.00152189 -25.35453798 253.56377648 -28.5 249.25 C-32.08754513 238.89096345 -29.15993192 224.81972569 -28.28417969 214.18164062 C-27.64434259 206.37246281 -27.15584358 198.57242102 -26.84204102 190.7434082 C-26.66679097 186.631498 -26.29733485 182.62388832 -25.75170898 178.54052734 C-25.18902804 173.42018536 -25.02949664 168.26926709 -24.8125 163.125 C-24.75255859 161.97128906 -24.69261719 160.81757813 -24.63085938 159.62890625 C-24.58380859 158.51128906 -24.53675781 157.39367187 -24.48828125 156.2421875 C-24.41927612 154.73180908 -24.41927612 154.73180908 -24.34887695 153.19091797 C-24.59343303 148.43175399 -25.84552298 144.49043752 -29.125 141 C-31.5 138.25 -31.5 138.25 -31.5 136.25 C-32.16 136.25 -32.82 136.25 -33.5 136.25 C-40.41226812 126.43903879 -38.62264671 113.71265216 -38.25805664 102.21508789 C-38.18793335 99.95148855 -38.13333549 97.68787972 -38.08007812 95.42382812 C-37.22276261 63.79327338 -29.3476973 31.04959597 -8.5 6.25 C-7.84 6.25 -7.18 6.25 -6.5 6.25 C-6.066875 5.321875 -6.066875 5.321875 -5.625 4.375 C-4.09289557 1.48102496 -3.33783515 0.33378352 0 0 Z " fill="#2AA37F" transform="translate(432.5,142.75)"/>
<path d="M0 0 C0.82638376 2.89234315 1 4.88742431 1 8 C1.66 7.67 2.32 7.34 3 7 C2.67 6.01 2.34 5.02 2 4 C2.99 3.34 3.98 2.68 5 2 C6.93633568 8.45445226 5.39321814 15.20841965 3.99609375 21.63671875 C2.87608312 27.12942266 2.56350372 32.53272294 2.375 38.125 C2.33632812 39.08148438 2.29765625 40.03796875 2.2578125 41.0234375 C2.16479872 43.34878199 2.07896229 45.67414335 2 48 C1.67 48 1.34 48 1 48 C0.97494385 47.42967041 0.9498877 46.85934082 0.92407227 46.27172852 C0.80843451 43.70173843 0.68556376 41.13214473 0.5625 38.5625 C0.52318359 37.66466797 0.48386719 36.76683594 0.44335938 35.84179688 C0.40146484 34.98779297 0.35957031 34.13378906 0.31640625 33.25390625 C0.26141968 32.06776733 0.26141968 32.06776733 0.20532227 30.85766602 C0.19436743 28.98598559 0.19436743 28.98598559 -1 28 C-1.66 28.66 -2.32 29.32 -3 30 C-3.99 30.33 -4.98 30.66 -6 31 C-6 28.69 -6 26.38 -6 24 C-5.01 24.33 -4.02 24.66 -3 25 C-3 24.34 -3 23.68 -3 23 C-3.66 22.67 -4.32 22.34 -5 22 C-5.9692539 22.9692539 -6.89202683 23.98430546 -7.8125 25 C-10.00273652 27.00250196 -11.12350986 27.58907284 -14 28 C-13.67 26.68 -13.34 25.36 -13 24 C-12.34 24 -11.68 24 -11 24 C-11 23.34 -11 22.68 -11 22 C-10.34 22 -9.68 22 -9 22 C-8.773125 21.34 -8.54625 20.68 -8.3125 20 C-7.1999591 17.45704936 -6.04254583 15.52514134 -4.5 13.25 C-1.77285765 9.03459413 -0.7630952 4.92025559 0 0 Z " fill="#34A380" transform="translate(148,209)"/>
<path d="M0 0 C2.5 0.25 2.5 0.25 4.5 2.25 C4.74609566 4.69814491 4.74609566 4.69814491 4.74050903 7.84341431 C4.74325836 9.03255936 4.74600769 10.22170441 4.74884033 11.44688416 C4.74164978 12.75814774 4.73445923 14.06941132 4.72705078 15.42041016 C4.72648687 16.80984997 4.72680284 18.19929039 4.72793579 19.58872986 C4.72851109 23.36746842 4.71672832 27.14608075 4.70278788 30.92478991 C4.69030986 34.87127071 4.68911234 38.81775422 4.68673706 42.76425171 C4.68051365 50.2405238 4.66409124 57.7167376 4.64403808 65.19298398 C4.6217058 73.70313837 4.61069238 82.2132955 4.60064721 90.72347188 C4.57972573 108.23234834 4.54453309 125.74116801 4.5 143.25 C4.17 143.25 3.84 143.25 3.5 143.25 C2.6708042 139.63535423 2.3762466 136.30484979 2.37974548 132.59953308 C2.37768349 130.91059937 2.37768349 130.91059937 2.37557983 129.18754578 C2.37917511 127.96187393 2.38277039 126.73620209 2.38647461 125.47338867 C2.38625557 123.52645615 2.38625557 123.52645615 2.3860321 121.54019165 C2.38574559 117.98893419 2.39161885 114.43771062 2.39860606 110.88646102 C2.40486377 107.17221865 2.40544531 103.45797547 2.40663147 99.74372864 C2.40973765 92.71381816 2.41794144 85.68392327 2.42798096 78.65401965 C2.43916422 70.6492214 2.44465813 62.6444224 2.44967639 54.63961828 C2.46012465 38.17640307 2.47771029 21.71320352 2.5 5.25 C1.51 6.24 0.52 7.23 -0.5 8.25 C-0.83 7.26 -1.16 6.27 -1.5 5.25 C-2.82 5.58 -4.14 5.91 -5.5 6.25 C-5.561875 6.86875 -5.62375 7.4875 -5.6875 8.125 C-6.5 10.25 -6.5 10.25 -9.0625 11.5 C-9.866875 11.7475 -10.67125 11.995 -11.5 12.25 C-10.5 10.25 -9.5 8.25 -8.5 6.25 C-7.84 6.25 -7.18 6.25 -6.5 6.25 C-6.21125 5.63125 -5.9225 5.0125 -5.625 4.375 C-4.09289557 1.48102496 -3.33783515 0.33378352 0 0 Z " fill="#47977B" transform="translate(432.5,142.75)"/>
<path d="M0 0 C2.21706613 3.89791162 3.323443 8.09528976 4.5625 12.375 C4.78357422 13.1175 5.00464844 13.86 5.23242188 14.625 C6.43315254 18.73142632 7.40006887 22.75329651 8 27 C4.37628852 25.63784946 1.08615026 24.02523511 -2.25 22.0625 C-3.12140625 21.55847656 -3.9928125 21.05445313 -4.890625 20.53515625 C-7 19 -7 19 -8 16 C-3.545 15.505 -3.545 15.505 1 15 C0.814375 14.236875 0.62875 13.47375 0.4375 12.6875 C0 10 0 10 1 7 C0.34 7 -0.32 7 -1 7 C-3 4 -3 4 -3 1 C-2.01 0.67 -1.02 0.34 0 0 Z " fill="#3AA280" transform="translate(306,143)"/>
<path d="M0 0 C0.33 0 0.66 0 1 0 C3.38776806 42.43368668 3.38776806 42.43368668 3 59 C2.67 59 2.34 59 2 59 C1.93941406 57.74445313 1.87882812 56.48890625 1.81640625 55.1953125 C1.3050608 42.56159075 1.3050608 42.56159075 0 30 C-0.66 29.67 -1.32 29.34 -2 29 C-1.86070975 25.10390391 -1.71242069 21.20820038 -1.5625 17.3125 C-1.52318359 16.20970703 -1.48386719 15.10691406 -1.44335938 13.97070312 C-1.40146484 12.90400391 -1.35957031 11.83730469 -1.31640625 10.73828125 C-1.27974854 9.75899658 -1.24309082 8.77971191 -1.20532227 7.77075195 C-1.00780667 5.10534823 -0.58426967 2.60530212 0 0 Z " fill="#64AF93" transform="translate(116,321)"/>
<path d="M0 0 C0.33 0 0.66 0 1 0 C2.18862003 8.15997086 2.15223776 16.29663406 2.13037109 24.52270508 C2.12495895 26.95595374 2.13036882 29.3890222 2.13671875 31.82226562 C2.13605885 33.36979207 2.13477953 34.91731841 2.1328125 36.46484375 C2.13483673 37.19186996 2.13686096 37.91889618 2.13894653 38.66795349 C2.11499737 43.77000526 2.11499737 43.77000526 1 46 C1.66 46 2.32 46 3 46 C3.33 47.98 3.66 49.96 4 52 C1.41145911 50.70572955 1.07807492 49.65681807 0 47 C-1.7901572 37.10375862 -0.92079539 26.74756424 -0.5625 16.75 C-0.50913351 15.11851014 -0.45639481 13.48699961 -0.40429688 11.85546875 C-0.27675446 7.90337077 -0.1407655 3.95164818 0 0 Z " fill="#59A98E" transform="translate(395,225)"/>
<path d="M0 0 C0.33 0 0.66 0 1 0 C3.43748165 16.45803727 4.00353716 33.13350893 -2 49 C-2.33 49 -2.66 49 -3 49 C-2.85879286 47.06215735 -2.71187127 45.12473045 -2.5625 43.1875 C-2.48128906 42.10855469 -2.40007812 41.02960938 -2.31640625 39.91796875 C-2 37 -2 37 -1 34 C-0.59567431 30.00982061 -0.44139821 26.00535758 -0.25 22 C-0.18167969 20.89398438 -0.11335938 19.78796875 -0.04296875 18.6484375 C0.03244141 17.05902344 0.03244141 17.05902344 0.109375 15.4375 C0.16061523 14.46683594 0.21185547 13.49617187 0.26464844 12.49609375 C0.22328275 9.92950432 0.22328275 9.92950432 -1.50683594 8.16015625 C-1.99958008 7.77730469 -2.49232422 7.39445313 -3 7 C-2.34 6.67 -1.68 6.34 -1 6 C-0.34227572 2.97065509 -0.34227572 2.97065509 0 0 Z " fill="#4BA186" transform="translate(341,231)"/>
<path d="M0 0 C2.64 0.33 5.28 0.66 8 1 C8 1.66 8 2.32 8 3 C0.72221544 4.9089271 -6.45684753 5.21922334 -13.9375 5.25 C-15.32328247 5.26353516 -15.32328247 5.26353516 -16.73706055 5.27734375 C-17.616604 5.27347656 -18.49614746 5.26960938 -19.40234375 5.265625 C-20.19116943 5.26336914 -20.97999512 5.26111328 -21.79272461 5.25878906 C-24.23756367 4.97214716 -25.87809906 4.21839159 -28 3 C-24.82212459 1.9407082 -22.57411057 1.88541061 -19.23828125 1.90234375 C-18.12001953 1.90556641 -17.00175781 1.90878906 -15.84960938 1.91210938 C-14.68236328 1.92048828 -13.51511719 1.92886719 -12.3125 1.9375 C-11.13365234 1.94201172 -9.95480469 1.94652344 -8.74023438 1.95117188 C-5.82677211 1.96296727 -2.91341137 1.9794273 0 2 C0 1.34 0 0.68 0 0 Z " fill="#61B396" transform="translate(265,339)"/>
<path d="M0 0 C0.66 0.99 1.32 1.98 2 3 C-0.31 4.65 -2.62 6.3 -5 8 C-4.62875 8.7425 -4.2575 9.485 -3.875 10.25 C-3 13 -3 13 -3.625 15.1875 C-5 17 -5 17 -7.0625 17.75 C-9.17997243 18.80439776 -9.17997243 18.80439776 -9.48046875 20.8984375 C-9.72577226 22.92485781 -9.86858202 24.96302126 -10 27 C-10.33 27 -10.66 27 -11 27 C-11.33112427 16.82712653 -10.68616083 10.31659176 -3.65625 2.6015625 C-2 1 -2 1 0 0 Z " fill="#3EA384" transform="translate(131,237)"/>
<path d="M0 0 C0.66 0.33 1.32 0.66 2 1 C1.67 2.65 1.34 4.3 1 6 C0.01 6 -0.98 6 -2 6 C-2.33 6.99 -2.66 7.98 -3 9 C-3.99 9 -4.98 9 -6 9 C-6 9.66 -6 10.32 -6 11 C-5.34 11.66 -4.68 12.32 -4 13 C-4.66 14.32 -5.32 15.64 -6 17 C-8.66666667 17 -11.33333333 17 -14 17 C-14 17.66 -14 18.32 -14 19 C-14.66 18.67 -15.32 18.34 -16 18 C-14.625 15.5 -14.625 15.5 -13 13 C-12.34 13 -11.68 13 -11 13 C-10.773125 12.443125 -10.54625 11.88625 -10.3125 11.3125 C-8.6296426 8.34746553 -6.46378626 6.34646311 -4 4 C-3.236875 3.236875 -2.47375 2.47375 -1.6875 1.6875 C-1.130625 1.130625 -0.57375 0.57375 0 0 Z " fill="#35A684" transform="translate(339,85)"/>
<path d="M0 0 C2.5 0.25 2.5 0.25 4.5 2.25 C4.64497985 4.83064129 4.68677545 7.29943884 4.625 9.875 C4.61597656 10.58140625 4.60695313 11.2878125 4.59765625 12.015625 C4.57407603 13.76056098 4.53820461 15.50532295 4.5 17.25 C4.17 17.25 3.84 17.25 3.5 17.25 C3.17 13.29 2.84 9.33 2.5 5.25 C1.51 6.24 0.52 7.23 -0.5 8.25 C-0.83 7.26 -1.16 6.27 -1.5 5.25 C-2.82 5.58 -4.14 5.91 -5.5 6.25 C-5.561875 6.86875 -5.62375 7.4875 -5.6875 8.125 C-6.5 10.25 -6.5 10.25 -9.0625 11.5 C-9.866875 11.7475 -10.67125 11.995 -11.5 12.25 C-10.5 10.25 -9.5 8.25 -8.5 6.25 C-7.84 6.25 -7.18 6.25 -6.5 6.25 C-6.21125 5.63125 -5.9225 5.0125 -5.625 4.375 C-4.09289557 1.48102496 -3.33783515 0.33378352 0 0 Z " fill="#2D9F7D" transform="translate(432.5,142.75)"/>
<path d="M0 0 C0.66 0.99 1.32 1.98 2 3 C1.01 3.33 0.02 3.66 -1 4 C-0.94070312 4.73605469 -0.88140625 5.47210938 -0.8203125 6.23046875 C-1.03328415 9.51301002 -1.8620685 10.75540281 -3.875 13.3125 C-4.40867188 14.00988281 -4.94234375 14.70726562 -5.4921875 15.42578125 C-5.98976562 15.94527344 -6.48734375 16.46476562 -7 17 C-7.66 17 -8.32 17 -9 17 C-8.67 17.99 -8.34 18.98 -8 20 C-9.65 20.99 -11.3 21.98 -13 23 C-12.50336048 18.02619228 -11.02790352 15.02156814 -8.1875 10.9375 C-7.15689453 9.43509766 -7.15689453 9.43509766 -6.10546875 7.90234375 C-4.14480421 5.19960952 -2.11147634 2.58596541 0 0 Z " fill="#57B095" transform="translate(180,192)"/>
<path d="M0 0 C0.99 0.33 1.98 0.66 3 1 C3.66666667 2.66666667 4.33333333 4.33333333 5 6 C5.99 6.33 6.98 6.66 8 7 C8.33 5.68 8.66 4.36 9 3 C9.66 3 10.32 3 11 3 C10.33501617 7.38889325 8.81242323 10.9811485 7 15 C5.1875 14.5 5.1875 14.5 3 13 C0.77313274 8.85374088 -0.44351374 4.73081322 0 0 Z " fill="#53A98C" transform="translate(319,155)"/>
<path d="M0 0 C0.7314624 -0.00064453 1.4629248 -0.00128906 2.21655273 -0.00195312 C8.52427914 0.05874452 14.58038452 0.85609936 20.75 2.1875 C20.75 2.5175 20.75 2.8475 20.75 3.1875 C10.52 2.8575 0.29 2.5275 -10.25 2.1875 C-10.25 2.8475 -10.25 3.5075 -10.25 4.1875 C-13.22 3.6925 -13.22 3.6925 -16.25 3.1875 C-16.25 2.5275 -16.25 1.8675 -16.25 1.1875 C-10.79962225 0.42371388 -5.50205573 -0.00509509 0 0 Z " fill="#62AC92" transform="translate(250.25,158.8125)"/>
<path d="M0 0 C0.66 0 1.32 0 2 0 C2.84686259 2.35004369 3.67750196 4.7039313 4.5 7.0625 C4.85771484 8.04766602 4.85771484 8.04766602 5.22265625 9.05273438 C6.75654063 13.50099909 7.24787428 17.23461699 7 22 C6.01 22 5.02 22 4 22 C2.41127888 19.47673704 1.89286391 18.47616039 2.5625 15.5 C2.7790625 14.2625 2.7790625 14.2625 3 13 C2.2884375 12.13375 2.2884375 12.13375 1.5625 11.25 C-0.86627801 7.75255966 -0.23849253 4.13387045 0 0 Z " fill="#56AB8E" transform="translate(376,202)"/>
<path d="M0 0 C12.37632072 -0.10396237 24.66826776 -0.19684056 37 1 C37 1.33 37 1.66 37 2 C10.80975493 3.66881926 10.80975493 3.66881926 1 2 C0.67 1.34 0.34 0.68 0 0 Z " fill="#6AAF99" transform="translate(232,387)"/>
<path d="M0 0 C3.83520308 3.28731693 6.32465344 7.25147171 8 12 C7.67 12.66 7.34 13.32 7 14 C6.34 13.67 5.68 13.34 5 13 C5 11.68 5 10.36 5 9 C4.34 9 3.68 9 3 9 C3 9.66 3 10.32 3 11 C2.34 11 1.68 11 1 11 C1 10.34 1 9.68 1 9 C-0.32 9.33 -1.64 9.66 -3 10 C-2.25 3.375 -2.25 3.375 0 0 Z " fill="#45A889" transform="translate(155,288)"/>
<path d="M0 0 C0.99 0.66 1.98 1.32 3 2 C8.15455717 2.25772786 12.92003172 1.84666138 18 1 C15.16556078 3.83443922 11.74786481 4.49801967 8 5.625 C7.26265625 5.85445312 6.5253125 6.08390625 5.765625 6.3203125 C0.28664435 8 0.28664435 8 -2 8 C-2 6.02 -2 4.04 -2 2 C-1.34 2 -0.68 2 0 2 C0 1.34 0 0.68 0 0 Z " fill="#41A988" transform="translate(357,169)"/>
<path d="M0 0 C2.97 0 5.94 0 9 0 C8.67 7.92 8.34 15.84 8 24 C7.67 24 7.34 24 7 24 C6.97494385 23.42967041 6.9498877 22.85934082 6.92407227 22.27172852 C6.80843451 19.70173843 6.68556376 17.13214473 6.5625 14.5625 C6.52318359 13.66466797 6.48386719 12.76683594 6.44335938 11.84179688 C6.38051758 10.56079102 6.38051758 10.56079102 6.31640625 9.25390625 C6.27974854 8.46314697 6.24309082 7.6723877 6.20532227 6.85766602 C6.19436743 4.98598559 6.19436743 4.98598559 5 4 C4.34 4.66 3.68 5.32 3 6 C2.01 6.33 1.02 6.66 0 7 C0 4.69 0 2.38 0 0 Z " fill="#59BA9B" transform="translate(142,233)"/>
<path d="M0 0 C0.33 0 0.66 0 1 0 C1.34028527 4.27030858 1.67093409 8.54131339 2 12.8125 C2.09539062 14.00810547 2.19078125 15.20371094 2.2890625 16.43554688 C2.83884038 23.64156405 3.13319338 30.7733342 3 38 C-1.09352634 33.90647366 -0.0630178 26.57104779 -0.09765625 21.09375 C-0.0910644 18.56248146 -0.07922047 16.0312219 -0.0625 13.5 C-0.05798828 12.200625 -0.05347656 10.90125 -0.04882812 9.5625 C-0.0371092 6.37495175 -0.02070219 3.18750045 0 0 Z " fill="#53A284" transform="translate(139,144)"/>
<path d="M0 0 C1.32 0.99 2.64 1.98 4 3 C3.0919838 4.13199353 2.17316174 5.25532363 1.25 6.375 C0.73953125 7.00148438 0.2290625 7.62796875 -0.296875 8.2734375 C-3.16942207 11.18551504 -5.12308207 11.94704602 -9.234375 12.1953125 C-10.39453125 12.17210937 -11.5546875 12.14890625 -12.75 12.125 C-13.92046875 12.10695313 -15.0909375 12.08890625 -16.296875 12.0703125 C-17.63492188 12.03550781 -17.63492188 12.03550781 -19 12 C-19 11.67 -19 11.34 -19 11 C-15.7 11 -12.4 11 -9 11 C-9 10.34 -9 9.68 -9 9 C-7.02 8.67 -5.04 8.34 -3 8 C-3 7.01 -3 6.02 -3 5 C-2.01 5 -1.02 5 0 5 C0 3.35 0 1.7 0 0 Z " fill="#55AB8C" transform="translate(114,390)"/>
<path d="M0 0 C2.60345817 3.88452489 2.29578807 8.00513804 2.25 12.5 C2.25773438 13.25925781 2.26546875 14.01851562 2.2734375 14.80078125 C2.25989235 18.66792278 2.19299412 21.72791354 0 25 C-0.80053618 20.78130139 -1.1352198 16.79231426 -1.125 12.5 C-1.12757813 11.4171875 -1.13015625 10.334375 -1.1328125 9.21875 C-1.00272728 6.06609647 -0.5876874 3.09701934 0 0 Z " fill="#64B496" transform="translate(159,238)"/>
<path d="M0 0 C0.33 0.99 0.66 1.98 1 3 C0.34 3.66 -0.32 4.32 -1 5 C-1 5.66 -1 6.32 -1 7 C-2.32 7 -3.64 7 -5 7 C-5 7.99 -5 8.98 -5 10 C-5.66 10 -6.32 10 -7 10 C-7.2475 10.804375 -7.495 11.60875 -7.75 12.4375 C-9 15 -9 15 -11 15.9375 C-11.99 15.9684375 -11.99 15.9684375 -13 16 C-13.66 15.34 -14.32 14.68 -15 14 C-11.25 11 -11.25 11 -9 11 C-9 10.34 -9 9.68 -9 9 C-8.34 9 -7.68 9 -7 9 C-6.731875 8.401875 -6.46375 7.80375 -6.1875 7.1875 C-5.00082594 5.00152146 -3.90400887 3.58667406 -2 2 C-1.34 2 -0.68 2 0 2 C0 1.34 0 0.68 0 0 Z " fill="#4FA788" transform="translate(326,317)"/>
<path d="M0 0 C0.33 1.32 0.66 2.64 1 4 C0.01 4 -0.98 4 -2 4 C-2 5.32 -2 6.64 -2 8 C-5.35787751 10.56778868 -8.9814387 11.78508612 -13 13 C-12.06409496 11.8944811 -11.12620142 10.79064547 -10.1875 9.6875 C-9.66542969 9.07261719 -9.14335937 8.45773438 -8.60546875 7.82421875 C-5.6626898 4.48047722 -5.6626898 4.48047722 -4 3 C-3.34 3 -2.68 3 -2 3 C-2 2.34 -2 1.68 -2 1 C-1.34 0.67 -0.68 0.34 0 0 Z " fill="#4CA988" transform="translate(194,179)"/>
<path d="M0 0 C-0.6452922 2.93015334 -1.5680895 5.48756475 -2.875 8.1875 C-3.20242188 8.88230469 -3.52984375 9.57710937 -3.8671875 10.29296875 C-5 12 -5 12 -8 13 C-7.4574852 8.44287564 -6.3106498 4.97431766 -4 1 C-2 0 -2 0 0 0 Z " fill="#2D9C7A" transform="translate(415,168)"/>
<path d="M0 0 C2.53069408 2.53069408 3.68376954 3.98014063 5.1875 7.0625 C5.53167969 7.75472656 5.87585938 8.44695312 6.23046875 9.16015625 C7 11 7 11 7 13 C6.01 13.33 5.02 13.66 4 14 C3.4465236 11.92446352 3 10.15634036 3 8 C1.68 8.33 0.36 8.66 -1 9 C-0.67 6.03 -0.34 3.06 0 0 Z " fill="#50AF91" transform="translate(329,202)"/>
<path d="M0 0 C0.33 0 0.66 0 1 0 C0.6623226 8.185766 0.03153319 15.35526412 -3 23 C-3.33 23 -3.66 23 -4 23 C-3.59378936 14.97383806 -2.40152224 7.67278805 0 0 Z " fill="#6BB297" transform="translate(342,257)"/>
<path d="M0 0 C0.66 0.99 1.32 1.98 2 3 C1.51789063 3.32613281 1.03578125 3.65226563 0.5390625 3.98828125 C-0.09257812 4.42527344 -0.72421875 4.86226562 -1.375 5.3125 C-2.00148437 5.74175781 -2.62796875 6.17101562 -3.2734375 6.61328125 C-5.26378845 8.06920339 -5.26378845 8.06920339 -7 11 C-7.66 11 -8.32 11 -9 11 C-9.33 11.66 -9.66 12.32 -10 13 C-9.40912862 9.39811284 -7.98667144 7.49874402 -5.5625 4.8125 C-4.94503906 4.11769531 -4.32757813 3.42289063 -3.69140625 2.70703125 C-2 1 -2 1 0 0 Z " fill="#5EAE91" transform="translate(131,237)"/>
<path d="M0 0 C-0.66 1.32 -1.32 2.64 -2 4 C-3.32 4 -4.64 4 -6 4 C-6.66 7.63 -7.32 11.26 -8 15 C-8.33 15 -8.66 15 -9 15 C-9.62133891 4.98953975 -9.62133891 4.98953975 -7.3125 1.3125 C-4.63672156 -0.20618506 -3.02985373 -0.33665041 0 0 Z " fill="#57AC8D" transform="translate(103,137)"/>
<path d="M0 0 C1.65 0 3.3 0 5 0 C5 0.66 5 1.32 5 2 C8.3 2 11.6 2 15 2 C13.68 3.32 12.36 4.64 11 6 C6.95743617 4.77782954 3.50711041 3.37245704 0 1 C0 0.67 0 0.34 0 0 Z " fill="#3FA588" transform="translate(183,370)"/>
<path d="M0 0 C0.71484375 1.640625 0.71484375 1.640625 1 4 C-0.43359375 6.796875 -0.43359375 6.796875 -2.4375 9.75 C-3.42556641 11.22726562 -3.42556641 11.22726562 -4.43359375 12.734375 C-4.95050781 13.48203125 -5.46742188 14.2296875 -6 15 C-6.66 14.01 -7.32 13.02 -8 12 C-7.67 11.34 -7.34 10.68 -7 10 C-6.34 10.33 -5.68 10.66 -5 11 C-5.33 9.68 -5.66 8.36 -6 7 C-5.01 6.34 -4.02 5.68 -3 5 C-2.63837971 3.67405895 -2.30271961 2.34061543 -2 1 C-1.34 0.67 -0.68 0.34 0 0 Z " fill="#53AA8C" transform="translate(369,314)"/>
<path d="M0 0 C0.33 0.99 0.66 1.98 1 3 C5.47254497 4.49084832 9.52745503 4.49084832 14 3 C14 3.66 14 4.32 14 5 C3.5235378 7.7617689 3.5235378 7.7617689 -2 5 C-1.34 3.35 -0.68 1.7 0 0 Z " fill="#65B799" transform="translate(110,200)"/>
<path d="M0 0 C0.33 0 0.66 0 1 0 C1 5.28 1 10.56 1 16 C1.66 16 2.32 16 3 16 C3.66 18.64 4.32 21.28 5 24 C4.34 24.33 3.68 24.66 3 25 C-1.08777892 16.99476628 -0.26866484 8.75648355 0 0 Z " fill="#86C0AA" transform="translate(121,277)"/>
<path d="M0 0 C0.66 0 1.32 0 2 0 C2 1.32 2 2.64 2 4 C2.99 3.67 3.98 3.34 5 3 C5 3.66 5 4.32 5 5 C5.66 5 6.32 5 7 5 C7 6.98 7 8.96 7 11 C6.01 11 5.02 11 4 11 C3.32591692 9.73308493 2.66099503 8.46129251 2 7.1875 C1.62875 6.47980469 1.2575 5.77210938 0.875 5.04296875 C0 3 0 3 0 0 Z " fill="#60B296" transform="translate(166,286)"/>
<path d="M0 0 C3.37503669 1.1858237 5.64722731 2.27573689 8 5 C7.67 5.99 7.34 6.98 7 8 C8.32 8.66 9.64 9.32 11 10 C10.34 10.66 9.68 11.32 9 12 C7.68181446 10.56771184 6.37063296 9.12897516 5.0625 7.6875 C4.33160156 6.88699219 3.60070312 6.08648437 2.84765625 5.26171875 C1 3 1 3 0 0 Z " fill="#51A788" transform="translate(66,221)"/>
<path d="M0 0 C2.64 0 5.28 0 8 0 C7.01 0.495 7.01 0.495 6 1 C6 1.66 6 2.32 6 3 C5.34 3 4.68 3 4 3 C4 3.66 4 4.32 4 5 C1.5 6.625 1.5 6.625 -1 8 C-0.67 5.36 -0.34 2.72 0 0 Z " fill="#5AB193" transform="translate(183,169)"/>
<path d="M0 0 C0 0.99 0 1.98 0 3 C-0.9075 2.814375 -1.815 2.62875 -2.75 2.4375 C-5.68314324 2.04265379 -7.2644657 2.05308428 -10 3 C-10.33 4.32 -10.66 5.64 -11 7 C-11.33 7 -11.66 7 -12 7 C-12.3259574 3.98489402 -12.43138108 2.53922634 -10.5 0.125 C-6.74124159 -1.56644129 -4.01932504 -0.73687626 0 0 Z " fill="#5DAC8D" transform="translate(137,138)"/>
<path d="M0 0 C2.475 0.99 2.475 0.99 5 2 C3.37660195 3.70884005 1.70680947 5.37446717 0 7 C-0.66 7 -1.32 7 -2 7 C-2 7.66 -2 8.32 -2 9 C-2.66 9 -3.32 9 -4 9 C-3.38461538 3.46153846 -3.38461538 3.46153846 -1.4375 1.125 C-0.963125 0.75375 -0.48875 0.3825 0 0 Z " fill="#4DAC8C" transform="translate(357,113)"/>
<path d="M0 0 C2.97 0.495 2.97 0.495 6 1 C6 1.66 6 2.32 6 3 C6.99 3 7.98 3 9 3 C9.33 4.32 9.66 5.64 10 7 C11.32 6.67 12.64 6.34 14 6 C13.34 7.32 12.68 8.64 12 10 C9.99708788 8.52464063 7.99763223 7.04497707 6 5.5625 C5.42765625 5.14162109 4.8553125 4.72074219 4.265625 4.28710938 C2.82546081 3.21555864 1.41048004 2.11033324 0 1 C0 0.67 0 0.34 0 0 Z " fill="#6AB397" transform="translate(166,358)"/>
<path d="M0 0 C0 0.66 0 1.32 0 2 C-1.98 2 -3.96 2 -6 2 C-6 2.66 -6 3.32 -6 4 C-11.22512279 5.46670113 -15.5814234 6.22577402 -21 6 C-21 5.67 -21 5.34 -21 5 C-17.87605609 4.16267257 -14.75068026 3.33082018 -11.625 2.5 C-10.73554688 2.26152344 -9.84609375 2.02304687 -8.9296875 1.77734375 C-8.07890625 1.55175781 -7.228125 1.32617188 -6.3515625 1.09375 C-5.56604004 0.88427734 -4.78051758 0.67480469 -3.97119141 0.45898438 C-2 0 -2 0 0 0 Z " fill="#65AD94" transform="translate(413,58)"/>
<path d="M0 0 C1.134375 0.020625 2.26875 0.04125 3.4375 0.0625 C4.0975 2.0425 4.7575 4.0225 5.4375 6.0625 C4.4475 6.0625 3.4575 6.0625 2.4375 6.0625 C2.4375 5.4025 2.4375 4.7425 2.4375 4.0625 C1.261875 3.876875 1.261875 3.876875 0.0625 3.6875 C-2.5625 3.0625 -2.5625 3.0625 -4.5625 1.0625 C-3.5625 0.0625 -3.5625 0.0625 0 0 Z " fill="#5AAE90" transform="translate(366.5625,183.9375)"/>
<path d="M0 0 C1 2 1 2 0.25 4.9375 C-0.91823127 7.79966662 -1.54726374 9.20761581 -4 11 C-6.1875 11.6875 -6.1875 11.6875 -8 12 C-7.67 10.68 -7.34 9.36 -7 8 C-6.34 8 -5.68 8 -5 8 C-5 7.34 -5 6.68 -5 6 C-4.34 6 -3.68 6 -3 6 C-2.690625 5.195625 -2.38125 4.39125 -2.0625 3.5625 C-1 1 -1 1 0 0 Z " fill="#57AD8E" transform="translate(142,225)"/>
<path d="M0 0 C2.4375 0.375 2.4375 0.375 4.4375 2.375 C4.58247985 4.95564129 4.62427545 7.42443884 4.5625 10 C4.55347656 10.70640625 4.54445313 11.4128125 4.53515625 12.140625 C4.51157603 13.88556098 4.47570461 15.63032295 4.4375 17.375 C4.1075 17.375 3.7775 17.375 3.4375 17.375 C3.1075 12.755 2.7775 8.135 2.4375 3.375 C-0.2025 3.705 -2.8425 4.035 -5.5625 4.375 C-3.24697412 0.47516694 -3.24697412 0.47516694 0 0 Z " fill="#6CAE96" transform="translate(432.5625,142.625)"/>
<path d="M0 0 C5 1.66666667 10 3.33333333 15 5 C13 7 13 7 10.375 7.125 C9.59125 7.08375 8.8075 7.0425 8 7 C8 6.01 8 5.02 8 4 C7.236875 4.04125 6.47375 4.0825 5.6875 4.125 C3 4 3 4 0 2 C0 1.34 0 0.68 0 0 Z " fill="#5BAA90" transform="translate(205,342)"/>
<path d="M0 0 C2.31 0 4.62 0 7 0 C7 0.66 7 1.32 7 2 C8.98 2.66 10.96 3.32 13 4 C13 4.99 13 5.98 13 7 C8.1725201 5.58707905 4.2837641 3.57025846 0 1 C0 0.67 0 0.34 0 0 Z " fill="#68B197" transform="translate(202,329)"/>
<path d="M0 0 C0.66 0.33 1.32 0.66 2 1 C1.67 2.32 1.34 3.64 1 5 C-2.3 5.66 -5.6 6.32 -9 7 C-3.51752022 1.21293801 -3.51752022 1.21293801 0 0 Z " fill="#64B499" transform="translate(350,78)"/>
<path d="M0 0 C0.33 0 0.66 0 1 0 C0.67 2.97 0.34 5.94 0 9 C-0.99 9 -1.98 9 -3 9 C-3.33 9.66 -3.66 10.32 -4 11 C-5 8 -5 8 -4.2578125 6.2109375 C-1.11111111 1.11111111 -1.11111111 1.11111111 0 0 Z " fill="#5CAD93" transform="translate(420,155)"/>
<path d="M0 0 C0.99 0 1.98 0 3 0 C3 1.65 3 3.3 3 5 C2.34 5 1.68 5 1 5 C0.67 6.65 0.34 8.3 0 10 C-0.99 9.34 -1.98 8.68 -3 8 C-2.34 8 -1.68 8 -1 8 C-1.020625 6.865625 -1.04125 5.73125 -1.0625 4.5625 C-1 1 -1 1 0 0 Z " fill="#21A077" transform="translate(341,185)"/>
<path d="M0 0 C0.99 0.33 1.98 0.66 3 1 C2.60196439 3.88575819 2.20990931 4.82189513 -0.0625 6.75 C-0.701875 7.1625 -1.34125 7.575 -2 8 C-3.32 7.34 -4.64 6.68 -6 6 C-4 4 -2 2 0 0 Z " fill="#5FB399" transform="translate(386,101)"/>
<path d="M0 0 C0.66 0 1.32 0 2 0 C4.21538462 7.38461538 4.21538462 7.38461538 3.125 10.5 C2.75375 10.995 2.3825 11.49 2 12 C0.00214565 7.8794254 -0.17835515 4.54805635 0 0 Z " fill="#4AA787" transform="translate(376,202)"/>
<path d="M0 0 C-1.74468372 0.70088156 -3.49601161 1.38524009 -5.25 2.0625 C-6.22453125 2.44535156 -7.1990625 2.82820312 -8.203125 3.22265625 C-11.04007395 4.01113787 -12.29409552 4.02437812 -15 3 C-10.60305954 -1.04518522 -5.6174745 -1.62611104 0 0 Z " fill="#6DB398" transform="translate(375,171)"/>
<path d="M0 0 C0.66 0.33 1.32 0.66 2 1 C1.34 2.98 0.68 4.96 0 7 C-2.31 7 -4.62 7 -7 7 C-7 6.01 -7 5.02 -7 4 C-1.7265625 0.77734375 -1.7265625 0.77734375 0 0 Z " fill="#4CA98A" transform="translate(185,128)"/>
<path d="M0 0 C0.66 0.33 1.32 0.66 2 1 C1.3125 2.9375 1.3125 2.9375 0 5 C-2.625 5.75 -2.625 5.75 -5 6 C-5.33 5.01 -5.66 4.02 -6 3 C-4.03533587 1.93224776 -2.03144641 0.93446535 0 0 Z " fill="#45A485" transform="translate(306,321)"/>
<path d="M0 0 C1.32 0 2.64 0 4 0 C4.33 0.99 4.66 1.98 5 3 C4.34 3 3.68 3 3 3 C2.71125 3.639375 2.4225 4.27875 2.125 4.9375 C1 7 1 7 -1 8 C-1.125 2.25 -1.125 2.25 0 0 Z " fill="#56AF92" transform="translate(174,178)"/>
<path d="M0 0 C0.66 0.33 1.32 0.66 2 1 C-0.23407889 4.35111834 -1.26215824 5.81553956 -5.25 6.8125 C-6.61125 6.9053125 -6.61125 6.9053125 -8 7 C-8 7.66 -8 8.32 -8 9 C-8.99 8.67 -9.98 8.34 -11 8 C-10.34 8 -9.68 8 -9 8 C-9 7.34 -9 6.68 -9 6 C-7.03125 4.4921875 -7.03125 4.4921875 -4.5 2.875 C-3.6646875 2.33617187 -2.829375 1.79734375 -1.96875 1.2421875 C-0.99421875 0.62730469 -0.99421875 0.62730469 0 0 Z " fill="#65AF94" transform="translate(173,135)"/>
<path d="M0 0 C3 4 3 4 3.07421875 6.359375 C2.94660156 7.14828125 2.81898437 7.9371875 2.6875 8.75 C2.50767578 9.94882812 2.50767578 9.94882812 2.32421875 11.171875 C2.21722656 11.77515625 2.11023438 12.3784375 2 13 C1.01 12.34 0.02 11.68 -1 11 C-0.67 7.37 -0.34 3.74 0 0 Z " fill="#5DAC90" transform="translate(117,377)"/>
<path d="M0 0 C0.66 0.33 1.32 0.66 2 1 C0.92598892 3.91517292 0.22189824 5.77810176 -2 8 C-3.66666667 6.33333333 -5.33333333 4.66666667 -7 3 C-4.69631264 1.93347808 -2.35981813 0.93578995 0 0 Z " fill="#4FAC8E" transform="translate(292,343)"/>
<path d="M0 0 C1.02205917 3.78909739 1.35200029 7.05759674 1 11 C-1 13.4375 -1 13.4375 -3 15 C-3.66 14.67 -4.32 14.34 -5 14 C-4.54625 13.360625 -4.0925 12.72125 -3.625 12.0625 C-1.55458473 8.16056352 -0.79918586 4.31560367 0 0 Z " fill="#6AB49A" transform="translate(148,209)"/>
<path d="M0 0 C0.12375 0.639375 0.2475 1.27875 0.375 1.9375 C0.58125 2.618125 0.7875 3.29875 1 4 C1.66 4.33 2.32 4.66 3 5 C1.4375 5.75 1.4375 5.75 -1 6 C-3.50286409 4.86915563 -5.67007722 3.47860484 -8 2 C-5.33333333 1.33333333 -2.66666667 0.66666667 0 0 Z " fill="#59B093" transform="translate(307,160)"/>
<path d="M0 0 C3.33333333 3.33333333 6.66666667 6.66666667 10 10 C7.21788056 9.62403791 5.4120716 9.32681541 3.1875 7.5625 C2 6 2 6 2 4 C1.34 4 0.68 4 0 4 C0 2.68 0 1.36 0 0 Z " fill="#70B49C" transform="translate(174,317)"/>
<path d="M0 0 C1.65 0 3.3 0 5 0 C2.525 3.465 2.525 3.465 0 7 C-1.32 5.68 -2.64 4.36 -4 3 C-2.68 3 -1.36 3 0 3 C0 2.01 0 1.02 0 0 Z " fill="#4EAB8C" transform="translate(117,237)"/>
<path d="M0 0 C0.99 0.33 1.98 0.66 3 1 C3 1.66 3 2.32 3 3 C3.99 3.33 4.98 3.66 6 4 C6 4.66 6 5.32 6 6 C3.69 6 1.38 6 -1 6 C-1.042721 4.33388095 -1.04063832 2.66617115 -1 1 C-0.67 0.67 -0.34 0.34 0 0 Z " fill="#44A685" transform="translate(76,200)"/>
<path d="M0 0 C-0.56371414 3.26954202 -1.49962266 4.82575883 -4 7 C-4.99 6.67 -5.98 6.34 -7 6 C-6.34 6 -5.68 6 -5 6 C-5 5.01 -5 4.02 -5 3 C-5.66 2.67 -6.32 2.34 -7 2 C-2.25 0 -2.25 0 0 0 Z " fill="#50AC8D" transform="translate(194,125)"/>
<path d="M0 0 C0.99 0.33 1.98 0.66 3 1 C2.67 1.66 2.34 2.32 2 3 C1.34 3 0.68 3 0 3 C0 3.66 0 4.32 0 5 C-1.8125 6.6875 -1.8125 6.6875 -4 8 C-4.99 7.67 -5.98 7.34 -7 7 C-4.69 4.69 -2.38 2.38 0 0 Z " fill="#7CBFA4" transform="translate(369,116)"/>
<path d="M0 0 C-1 1 -1 1 -3.5625 1.0625 C-4.7690625 1.0315625 -4.7690625 1.0315625 -6 1 C-6 1.66 -6 2.32 -6 3 C-10.625 5.125 -10.625 5.125 -14 4 C-14 3.34 -14 2.68 -14 2 C-12.04396149 1.47061343 -10.08507711 0.95173199 -8.125 0.4375 C-7.03445313 0.14746094 -5.94390625 -0.14257812 -4.8203125 -0.44140625 C-2 -1 -2 -1 0 0 Z " fill="#5AAA8B" transform="translate(392,65)"/>
<path d="M0 0 C0.66 0 1.32 0 2 0 C2 0.66 2 1.32 2 2 C2.99 2.33 3.98 2.66 5 3 C-0.2734375 6.22265625 -0.2734375 6.22265625 -2 7 C-2.66 6.67 -3.32 6.34 -4 6 C-4 5.01 -4 4.02 -4 3 C-2.68 3 -1.36 3 0 3 C0 2.01 0 1.02 0 0 Z " fill="#53AE91" transform="translate(310,370)"/>
<path d="M0 0 C0.33 0.66 0.66 1.32 1 2 C1.33 1.34 1.66 0.68 2 0 C3.32 0.33 4.64 0.66 6 1 C5.34 1 4.68 1 4 1 C4 1.66 4 2.32 4 3 C2.46875 4.2890625 2.46875 4.2890625 0.5 5.625 C-0.1496875 6.07101562 -0.799375 6.51703125 -1.46875 6.9765625 C-1.9740625 7.31429688 -2.479375 7.65203125 -3 8 C-3 7.01 -3 6.02 -3 5 C-2.34 5 -1.68 5 -1 5 C-0.67 3.35 -0.34 1.7 0 0 Z " fill="#66B197" transform="translate(341,348)"/>
<path d="M0 0 C2.5 1.375 2.5 1.375 5 3 C5 3.66 5 4.32 5 5 C5.99 5.33 6.98 5.66 8 6 C7.01 6.66 6.02 7.32 5 8 C4.34 7.34 3.68 6.68 3 6 C2.01 6 1.02 6 0 6 C0 4.02 0 2.04 0 0 Z " fill="#5FAF95" transform="translate(184,327)"/>
<path d="M0 0 C1.32 0.99 2.64 1.98 4 3 C3.67 4.98 3.34 6.96 3 9 C2.34 9 1.68 9 1 9 C0.67 6.03 0.34 3.06 0 0 Z M5 1 C5.99 1.33 6.98 1.66 8 2 C7.34 2 6.68 2 6 2 C5.67 2.66 5.34 3.32 5 4 C5 3.01 5 2.02 5 1 Z " fill="#58B194" transform="translate(408,289)"/>
<path d="M0 0 C0.66 0.99 1.32 1.98 2 3 C1.01 3.33 0.02 3.66 -1 4 C-1 5.65 -1 7.3 -1 9 C-1.99 9.33 -2.98 9.66 -4 10 C-4.8125 8.375 -4.8125 8.375 -5 6 C-3.53181864 3.75390165 -1.84147142 1.97621323 0 0 Z " fill="#50A989" transform="translate(180,192)"/>
<path d="M0 0 C1.88391785 3.26545761 2.49287967 6.28111761 3 10 C-1.875 8.25 -1.875 8.25 -3 6 C-2.01 6 -1.02 6 0 6 C0 4.02 0 2.04 0 0 Z " fill="#72B897" transform="translate(311,160)"/>
<path d="M0 0 C2 1 2 1 2.88671875 2.99609375 C3.15097656 3.80175781 3.41523438 4.60742188 3.6875 5.4375 C3.95949219 6.24058594 4.23148438 7.04367187 4.51171875 7.87109375 C5 10 5 10 4 12 C3.34 12 2.68 12 2 12 C0.70756464 7.8803623 -0.26252625 4.33168317 0 0 Z " fill="#65B399" transform="translate(160,266)"/>
<path d="M0 0 C1.65 0.33 3.3 0.66 5 1 C4.67 3.31 4.34 5.62 4 8 C3.34 6.68 2.68 5.36 2 4 C1.01 4 0.02 4 -1 4 C-0.67 2.68 -0.34 1.36 0 0 Z " fill="#299876" transform="translate(146,267)"/>
<path d="M0 0 C0.33 0 0.66 0 1 0 C1.33 4.95 1.66 9.9 2 15 C1.67 15 1.34 15 1 15 C0.896875 14.236875 0.79375 13.47375 0.6875 12.6875 C-0.04364039 9.82940576 -0.76951913 8.84257115 -3 7 C-2.34 6.67 -1.68 6.34 -1 6 C-0.34227572 2.97065509 -0.34227572 2.97065509 0 0 Z " fill="#7AC3A9" transform="translate(341,231)"/>
<path d="M0 0 C0.625 1.8125 0.625 1.8125 1 4 C-1 7 -1 7 -2 8 C-2.99 7.67 -3.98 7.34 -5 7 C-4.34 5.02 -3.68 3.04 -3 1 C-2.34 1.33 -1.68 1.66 -1 2 C-0.67 1.34 -0.34 0.68 0 0 Z " fill="#50B390" transform="translate(141,208)"/>
<path d="M0 0 C0.99 0 1.98 0 3 0 C1.8141763 3.37503669 0.72426311 5.64722731 -2 8 C-2.6875 6.25 -2.6875 6.25 -3 4 C-1.75 1.75 -1.75 1.75 0 0 Z " fill="#59AB8E" transform="translate(414,136)"/>
<path d="M0 0 C2.125 0.9375 2.125 0.9375 4 2 C2.35 3.65 0.7 5.3 -1 7 C-2 4 -2 4 -2 1 C-1.34 0.67 -0.68 0.34 0 0 Z " fill="#56AD8D" transform="translate(396,153)"/>
<path d="M0 0 C1.67542976 0.28604898 3.34385343 0.61781233 5 1 C3.35830472 3.02054804 1.69088222 5.02043058 0 7 C-0.33 7 -0.66 7 -1 7 C-1.04254356 5.00045254 -1.04080783 2.99958364 -1 1 C-0.67 0.67 -0.34 0.34 0 0 Z " fill="#53A88C" transform="translate(348,122)"/>
<path d="M0 0 C0.66 0.33 1.32 0.66 2 1 C1.67 3.31 1.34 5.62 1 8 C-0.65 7.67 -2.3 7.34 -4 7 C-3.01 5.35 -2.02 3.7 -1 2 C-1.66 1.67 -2.32 1.34 -3 1 C-2.01 0.67 -1.02 0.34 0 0 Z " fill="#4CB293" transform="translate(365,71)"/>
<path d="M0 0 C0.66 0 1.32 0 2 0 C2.33 2.31 2.66 4.62 3 7 C-1.875 5.25 -1.875 5.25 -3 3 C-2.34 3 -1.68 3 -1 3 C-0.67 2.01 -0.34 1.02 0 0 Z " fill="#5BAF93" transform="translate(199,322)"/>
<path d="M0 0 C0 2.95274099 -0.43891831 4.49058403 -1.5 7.1875 C-1.7784375 7.90292969 -2.056875 8.61835938 -2.34375 9.35546875 C-2.5603125 9.89816406 -2.776875 10.44085938 -3 11 C-3.66 11 -4.32 11 -5 11 C-5.33 10.01 -5.66 9.02 -6 8 C-4.78515625 5.95703125 -4.78515625 5.95703125 -3.0625 3.8125 C-2.49660156 3.09707031 -1.93070312 2.38164062 -1.34765625 1.64453125 C-0.90292969 1.10183594 -0.45820313 0.55914062 0 0 Z " fill="#74BCA0" transform="translate(334,307)"/>
<path d="M0 0 C0.66 0 1.32 0 2 0 C2 0.66 2 1.32 2 2 C2.66 2 3.32 2 4 2 C4.33 1.34 4.66 0.68 5 0 C5 3.27275026 4.70074844 5.846632 4 9 C2.47700477 6.06279492 1.19899698 3.0831351 0 0 Z " fill="#61B498" transform="translate(86,241)"/>
<path d="M0 0 C0.66 0 1.32 0 2 0 C4.42857143 7.42857143 4.42857143 7.42857143 3 11 C0.29417212 7.16674383 -0.32613618 4.67461851 0 0 Z " fill="#6EB8A0" transform="translate(332,185)"/>
<path d="M0 0 C0.99 0.33 1.98 0.66 3 1 C4.1875 4.0625 4.1875 4.0625 5 7 C3.68 7.33 2.36 7.66 1 8 C0.67 5.36 0.34 2.72 0 0 Z " fill="#53A78B" transform="translate(319,155)"/>
<path d="M0 0 C0.33 0 0.66 0 1 0 C1.3125 2.3125 1.3125 2.3125 1 5 C-1.5 6.8125 -1.5 6.8125 -4 8 C-4 5 -4 5 -2 2 C-1.34 2 -0.68 2 0 2 C0 1.34 0 0.68 0 0 Z " fill="#62B197" transform="translate(426,147)"/>
<path d="M0 0 C0.66 0.33 1.32 0.66 2 1 C1.67 2.65 1.34 4.3 1 6 C-0.98 6 -2.96 6 -5 6 C-3.35 4.02 -1.7 2.04 0 0 Z " fill="#5DB194" transform="translate(339,85)"/>
<path d="M0 0 C0.99 0.33 1.98 0.66 3 1 C3 1.99 3 2.98 3 4 C2.34 4.66 1.68 5.32 1 6 C-0.65 5.01 -2.3 4.02 -4 3 C-2.68 2.67 -1.36 2.34 0 2 C0 1.34 0 0.68 0 0 Z " fill="#53AC8E" transform="translate(413,395)"/>
<path d="M0 0 C0.33 0.99 0.66 1.98 1 3 C0.34 3.66 -0.32 4.32 -1 5 C-1 5.66 -1 6.32 -1 7 C-2.98 7.33 -4.96 7.66 -7 8 C-5.38405168 5.95880212 -3.7143618 3.95927063 -2 2 C-1.34 2 -0.68 2 0 2 C0 1.34 0 0.68 0 0 Z " fill="#8BC4B1" transform="translate(326,317)"/>
<path d="M0 0 C0.33 0.66 0.66 1.32 1 2 C1.66 2 2.32 2 3 2 C1.25 6.875 1.25 6.875 -1 8 C-1.66 6.35 -2.32 4.7 -3 3 C-2.34 3 -1.68 3 -1 3 C-0.67 2.01 -0.34 1.02 0 0 Z " fill="#57B394" transform="translate(327,296)"/>
<path d="M0 0 C0.6875 1.625 0.6875 1.625 1 4 C-0.4375 7.25 -0.4375 7.25 -2 10 C-2.66 10 -3.32 10 -4 10 C-2.8905928 6.51329166 -1.73662334 3.22515763 0 0 Z " fill="#69B398" transform="translate(411,169)"/>
<path d="M0 0 C0.66 1.32 1.32 2.64 2 4 C-0.475 5.485 -0.475 5.485 -3 7 C-2.625 4.0625 -2.625 4.0625 -2 1 C-1.34 0.67 -0.68 0.34 0 0 Z " fill="#52A78D" transform="translate(170,208)"/>
<path d="M0 0 C2.3125 0.125 2.3125 0.125 5 1 C6.8125 4.0625 6.8125 4.0625 8 7 C7.34 7 6.68 7 6 7 C6 6.34 6 5.68 6 5 C5.38125 4.690625 4.7625 4.38125 4.125 4.0625 C2.75 3.375 1.375 2.6875 0 2 C0 1.34 0 0.68 0 0 Z " fill="#62AE95" transform="translate(186,316)"/>
<path d="M0 0 C1.32 0.33 2.64 0.66 4 1 C4.33 3.31 4.66 5.62 5 8 C2.27573689 5.64722731 1.1858237 3.37503669 0 0 Z " fill="#61AE92" transform="translate(131,316)"/>
<path d="M0 0 C1.5 1.375 1.5 1.375 3 3 C3 3.66 3 4.32 3 5 C3.66 5 4.32 5 5 5 C4.67 5.66 4.34 6.32 4 7 C3.01 7.33 2.02 7.66 1 8 C0.67 5.36 0.34 2.72 0 0 Z " fill="#62B499" transform="translate(167,308)"/>
<path d="M0 0 C0.33 0 0.66 0 1 0 C1.33 2.97 1.66 5.94 2 9 C0.35 7.35 -1.3 5.7 -3 4 C-2.02727325 2.64664105 -1.0260734 1.31337396 0 0 Z " fill="#56AF92" transform="translate(406,279)"/>
<path d="M0 0 C-0.33 0.99 -0.66 1.98 -1 3 C-3.97 3 -6.94 3 -10 3 C-4 0 -4 0 0 0 Z " fill="#61B093" transform="translate(230,162)"/>
<path d="M0 0 C0.66 0 1.32 0 2 0 C1.39009109 3.55780196 0.4216319 6.6828589 -1 10 C-2.46726798 6.18510326 -1.43336419 3.70988378 0 0 Z " fill="#6EB89D" transform="translate(328,158)"/>
<path d="M0 0 C2.64 0 5.28 0 8 0 C7.01 0.495 7.01 0.495 6 1 C6 1.66 6 2.32 6 3 C3.03 2.505 3.03 2.505 0 2 C0 1.34 0 0.68 0 0 Z " fill="#58AF92" transform="translate(234,160)"/>
<path d="M0 0 C0.99 0.99 1.98 1.98 3 3 C2.67 3.99 2.34 4.98 2 6 C-1.875 4.125 -1.875 4.125 -3 3 C-2.01 2.01 -1.02 1.02 0 0 Z " fill="#53B296" transform="translate(161,144)"/>
<path d="M0 0 C0.33 0.66 0.66 1.32 1 2 C-5.625 3 -5.625 3 -9 3 C-5.92807025 0.26939578 -4.09590633 -0.34132553 0 0 Z " fill="#59A388" transform="translate(73,137)"/>
<path d="M0 0 C0.66 0.33 1.32 0.66 2 1 C1.67 1.99 1.34 2.98 1 4 C-1.0625 4.6875 -1.0625 4.6875 -3 5 C-3 5.66 -3 6.32 -3 7 C-3.66 6.67 -4.32 6.34 -5 6 C-2.25 1.125 -2.25 1.125 0 0 Z " fill="#5CA98F" transform="translate(328,97)"/>
<path d="M0 0 C1.32 0 2.64 0 4 0 C4 0.99 4 1.98 4 3 C3.01 3 2.02 3 1 3 C0.67 3.66 0.34 4.32 0 5 C-0.66 4.34 -1.32 3.68 -2 3 C-1.34 2.01 -0.68 1.02 0 0 Z " fill="#4BA487" transform="translate(332,91)"/>
<path d="M0 0 C0.99 0.99 1.98 1.98 3 3 C1.35 4.32 -0.3 5.64 -2 7 C-2.33 6.01 -2.66 5.02 -3 4 C-2.34 3.67 -1.68 3.34 -1 3 C-0.67 2.01 -0.34 1.02 0 0 Z " fill="#4FA587" transform="translate(435,392)"/>
<path d="M0 0 C1.65 0 3.3 0 5 0 C5 0.66 5 1.32 5 2 C6.32 2.33 7.64 2.66 9 3 C7.3125 3.6875 7.3125 3.6875 5 4 C2.25 2.625 2.25 2.625 0 1 C0 0.67 0 0.34 0 0 Z " fill="#68B69C" transform="translate(183,370)"/>
<path d="M0 0 C-5.75 4 -5.75 4 -8 4 C-8 3.01 -8 2.02 -8 1 C-3.375 -1.125 -3.375 -1.125 0 0 Z " fill="#5BAC91" transform="translate(323,368)"/>
<path d="M0 0 C0.33 0.99 0.66 1.98 1 3 C-0.65 4.32 -2.3 5.64 -4 7 C-3.6875 4.625 -3.6875 4.625 -3 2 C-2.01 1.34 -1.02 0.68 0 0 Z " fill="#59A78B" transform="translate(352,339)"/>
<path d="M0 0 C0.66 0.33 1.32 0.66 2 1 C1.1875 3.9375 1.1875 3.9375 0 7 C-0.99 7.33 -1.98 7.66 -3 8 C-1.125 2.25 -1.125 2.25 0 0 Z " fill="#6AB59E" transform="translate(342,292)"/>
<path d="M0 0 C3.93846154 3.32307692 3.93846154 3.32307692 4.25 6.75 C4.1675 7.4925 4.085 8.235 4 9 C1.18167487 7.59083743 0.97406539 5.92219617 0 3 C0 2.01 0 1.02 0 0 Z " fill="#339C7C" transform="translate(160,263)"/>
<path d="M0 0 C0.66 0 1.32 0 2 0 C2.66 1.98 3.32 3.96 4 6 C3.01 6.33 2.02 6.66 1 7 C0.31292445 4.50935112 0 2.62113708 0 0 Z " fill="#52A689" transform="translate(332,209)"/>
<path d="M0 0 C0.99 0.33 1.98 0.66 3 1 C3.33 1.99 3.66 2.98 4 4 C3.01 4.33 2.02 4.66 1 5 C-1.1875 3.5625 -1.1875 3.5625 -3 2 C-2.01 1.34 -1.02 0.68 0 0 Z " fill="#5BB293" transform="translate(210,168)"/>
<path d="M0 0 C0.66 0.99 1.32 1.98 2 3 C0.68 3.99 -0.64 4.98 -2 6 C-2.66 5.67 -3.32 5.34 -4 5 C-2.68 3.35 -1.36 1.7 0 0 Z " fill="#5CAE93" transform="translate(353,134)"/>
<path d="M0 0 C0.33 0 0.66 0 1 0 C1.1875 2.375 1.1875 2.375 1 5 C0.01 5.66 -0.98 6.32 -2 7 C-2.66 6.34 -3.32 5.68 -4 5 C-2.69254251 3.31295807 -1.35827971 1.64639965 0 0 Z " fill="#64B499" transform="translate(361,124)"/>
</svg>
