<?xml version="1.0" encoding="UTF-8"?>
<svg version="1.1" xmlns="http://www.w3.org/2000/svg" width="1024" height="1024">
<path d="M0 0 C1.31498069 -0.00322445 2.62996138 -0.00644889 3.98478997 -0.00977105 C5.46342613 -0.00829954 6.9420622 -0.0067318 8.42069817 -0.00507832 C9.97671879 -0.00694446 11.53273895 -0.00924437 13.08875835 -0.01194364 C17.38609981 -0.0180938 21.68342191 -0.01792425 25.98076677 -0.01674926 C30.60836561 -0.01654603 35.23595809 -0.02205705 39.863554 -0.02680683 C48.94373193 -0.03513481 58.02390338 -0.03786276 67.1040848 -0.03841921 C74.4932628 -0.03889397 81.88243866 -0.04094675 89.27161598 -0.04411983 C110.23279701 -0.05293727 131.1939729 -0.05753826 152.15515579 -0.05678936 C153.28659306 -0.0567494 154.41803034 -0.05670945 155.58375359 -0.05666828 C156.71657917 -0.0566274 157.84940476 -0.05658652 159.01655839 -0.0565444 C177.32386841 -0.05613906 195.63115775 -0.06567741 213.9384618 -0.07980665 C232.74766239 -0.09420805 251.55685294 -0.10107456 270.36605918 -0.10021287 C280.92075082 -0.09988189 291.47542085 -0.10258478 302.0301075 -0.11339092 C311.0302986 -0.12254618 320.03045835 -0.12463078 329.03065212 -0.1178815 C333.61468353 -0.11463961 338.19865498 -0.1144737 342.78268051 -0.12323475 C374.28696529 -0.17947418 401.61119693 0.08923714 429.99098015 15.12863445 C431.06605827 15.6494157 432.1411364 16.17019695 433.24879265 16.70675945 C435.57860067 17.91480806 437.3089872 19.0148408 439.24098015 20.75363445 C439.82750359 21.27828289 440.41402702 21.80293133 441.0183239 22.3434782 C441.66930046 22.93257977 442.32027702 23.52168133 442.99098015 24.12863445 C443.75539421 24.78992352 444.51980827 25.45121258 445.3073864 26.1325407 C462.12196754 40.84200997 473.99806547 57.86310798 480.67848015 79.25363445 C480.88126579 79.87939373 481.08405144 80.50515301 481.2929821 81.14987469 C486.10790054 97.50853495 485.21398816 114.90849439 485.05348015 131.75363445 C485.02572753 135.27652736 485.00106392 138.79937698 484.9822979 142.32232952 C484.97017219 144.49605406 484.95270204 146.6697577 484.92898369 148.84338665 C484.92245277 149.82906628 484.91592186 150.8147459 484.90919304 151.83029461 C484.90094002 152.68724926 484.892687 153.54420391 484.88418388 154.42712688 C485.01378473 157.70549695 485.5106067 160.88493501 485.99098015 164.12863445 C486.93383873 164.12767301 487.87669731 164.12671156 488.84812737 164.12572098 C520.60441298 164.09669798 552.35994335 164.19434495 584.11598015 164.3122282 C585.43005978 164.31709028 586.7441394 164.32195235 588.09803963 164.32696176 C600.51748088 164.37295958 612.93691937 164.41966271 625.35635185 164.46797371 C628.18752348 164.47897554 631.01869515 164.48996808 633.84986687 164.50094891 C634.90477414 164.50504136 634.90477414 164.50504136 635.98099267 164.50921649 C647.49135066 164.55375808 659.00171944 164.5942761 670.51209736 164.63328706 C682.40453587 164.67366476 694.29695605 164.71776744 706.18936729 164.765513 C712.83817711 164.79210894 719.48698568 164.81691908 726.13581657 164.83770847 C732.34801696 164.8572078 738.56018167 164.88133027 744.77235031 164.90912533 C747.05533965 164.91851574 749.33833678 164.92618379 751.62133789 164.93205357 C754.72139805 164.94027681 757.8213711 164.95454031 760.92140007 164.97041607 C761.83602076 164.97139418 762.75064144 164.97237228 763.69297791 164.97338003 C769.87685114 165.01450544 769.87685114 165.01450544 770.99098015 166.12863445 C773.19284326 211.85569868 765.15794154 260.3312784 739.05348015 298.75363445 C738.40681389 299.7120927 738.40681389 299.7120927 737.74708366 300.68991375 C708.49734355 343.69013702 663.21449118 373.74035952 612.19947624 383.67209148 C600.44436268 385.76683566 588.7323811 386.4079359 576.80348015 386.50363445 C575.61029167 386.51765301 574.4171032 386.53167156 573.18775749 386.54611492 C563.11037682 386.49112432 552.73515912 385.64119513 544.74098015 378.9294157 C538.4449242 372.4506617 535.07237205 365.43516128 534.61598015 356.37863445 C534.84496775 347.51546718 538.08017307 340.12161012 544.21754265 333.77707195 C553.43847521 325.20607296 564.52340324 324.77664089 576.55433464 324.76181316 C596.00289072 324.68692935 615.16805364 322.43108557 632.99098015 314.12863445 C633.98742546 313.67746258 634.98387077 313.2262907 636.0105114 312.76144695 C646.0825671 307.97754373 655.3516 302.04939881 663.46754265 294.37863445 C664.99098015 293.12863445 664.99098015 293.12863445 666.99098015 293.12863445 C666.99098015 292.46863445 666.99098015 291.80863445 666.99098015 291.12863445 C667.65098015 291.12863445 668.31098015 291.12863445 668.99098015 291.12863445 C668.99098015 290.46863445 668.99098015 289.80863445 668.99098015 289.12863445 C670.10623942 287.97852333 671.22881376 286.83500038 672.3776989 285.7184782 C690.01677675 268.33565814 698.03917042 246.30133354 704.99098015 223.12863445 C632.39098015 223.12863445 559.79098015 223.12863445 484.99098015 223.12863445 C485.01418327 257.15988445 485.0373864 291.19113445 485.06129265 326.25363445 C485.07150881 347.78228049 485.08123141 369.31092504 485.0886364 390.83957195 C485.09229715 401.42819445 485.09605126 412.0168169 485.10003214 422.60543928 C485.10057182 424.04159962 485.10110856 425.47775997 485.10164233 426.91392031 C485.11016846 449.78903153 485.12517035 472.66413283 485.14357459 495.53923807 C485.16246312 519.05912678 485.17475645 542.57901002 485.17881013 566.0989062 C485.18143521 581.24902019 485.18980497 596.3991051 485.20681308 611.54920995 C485.21739828 621.48517427 485.22057729 631.42112391 485.2179829 641.35709345 C485.21670401 647.08654901 485.21864202 652.81595488 485.2293911 658.54540157 C485.23917508 663.79899896 485.23958184 669.05251359 485.23277794 674.30611491 C485.2319379 676.19871713 485.23443111 678.09132466 485.24074651 679.98391652 C485.28513802 694.11813993 485.20836782 708.64879331 480.42848015 722.12863445 C480.17380974 722.8671867 479.91913933 723.60573895 479.65675163 724.36667156 C475.44687049 735.980692 469.0842859 746.80105549 460.99098015 756.12863445 C460.32711296 756.92398602 459.66324577 757.71933758 458.9792614 758.5387907 C444.55386061 775.2950462 426.35429491 785.82831042 404.99098015 791.12863445 C403.56205437 791.49408367 403.56205437 791.49408367 402.1042614 791.8669157 C377.5956525 797.00638148 349.17080798 792.34664545 327.89723015 779.1091032 C304.60487443 763.23648983 287.89027511 741.78633445 280.99098015 714.12863445 C280.57383343 710.84180597 280.31313604 707.63478818 280.2292614 704.32394695 C280.15062859 703.59949383 280.07199577 702.8750407 279.99098015 702.12863445 C279.33098015 701.79863445 278.67098015 701.46863445 277.99098015 701.12863445 C277.94515351 646.96142574 277.90993598 592.79421899 277.88884949 538.62699469 C277.88634822 532.22495335 277.88375956 525.82291206 277.88111687 519.42087078 C277.88032994 517.50915888 277.88032994 517.50915888 277.87952711 515.55882653 C277.8708361 494.95125458 277.85507333 474.34369385 277.83667456 453.73612855 C277.81793917 432.57428562 277.80685574 411.41244854 277.80280316 390.25059766 C277.80006564 377.20372847 277.79143468 364.15689099 277.77514721 351.11003157 C277.76453539 342.15051514 277.76138899 333.19101498 277.76397739 324.23149274 C277.76525217 319.07051536 277.76336589 313.90959319 277.7525692 308.74862576 C277.67597325 270.1443246 277.67989384 233.31214415 303.99098015 202.12863445 C304.73348015 201.16957195 304.73348015 201.16957195 305.49098015 200.19113445 C321.27029636 180.62478235 348.30440657 167.849511 372.99098015 165.12863445 C379.3441257 164.65712557 385.70606305 164.43088452 392.0742321 164.2863493 C394.07570536 164.24142163 394.07570536 164.24142163 395.99098015 163.12863445 C397.58996431 163.36687236 399.18848775 163.60864249 400.78443718 163.86642742 C405.30987123 164.40419199 409.87810409 164.22962169 414.42848015 164.19113445 C415.44619499 164.18662273 416.46390984 164.18211102 417.51246452 164.17746258 C420.00536524 164.16575882 422.49814088 164.14936294 424.99098015 164.12863445 C424.92936903 156.38223984 424.8519824 148.63617027 424.75526524 140.89014339 C424.71081825 137.29209223 424.67150841 133.69414763 424.6445446 130.09591961 C424.61825178 126.61380872 424.57767402 123.13211378 424.52779388 119.65026379 C424.50335211 117.69647507 424.49314823 115.74252455 424.48333549 113.7886076 C424.23395656 98.41377149 420.58745914 84.67031021 409.86598015 73.25363445 C397.27400445 61.44440319 382.08982735 58.64607045 365.3171978 58.7678709 C364.00343707 58.76530763 362.68967635 58.76274435 361.33610469 58.7601034 C357.72827204 58.75346055 354.12071141 58.76530432 350.51291335 58.78043759 C346.60785729 58.79348435 342.70281458 58.78900243 338.79774284 58.78673077 C332.04478875 58.78516345 325.29192212 58.79451569 318.53899002 58.81144428 C308.77559344 58.83590363 299.01223882 58.84364662 289.24881492 58.84740826 C273.40544047 58.8539619 257.56211256 58.87389346 241.71876335 58.90231609 C226.33530217 58.92988487 210.95185365 58.95110463 195.56837273 58.96383953 C194.61893654 58.9646277 193.66950036 58.96541587 192.69129338 58.96622793 C187.92789298 58.97014325 183.16449249 58.97393433 178.40109193 58.97766364 C138.9310221 59.00872567 99.46100421 59.06153173 59.99098015 59.12863445 C59.99098015 61.43863445 59.99098015 63.74863445 59.99098015 66.12863445 C60.65098015 66.45863445 61.31098015 66.78863445 61.99098015 67.12863445 C62.41017213 68.73808688 62.74780147 70.36881961 63.05348015 72.00363445 C67.46765119 90.68583312 78.75818949 106.73449463 90.99098015 121.12863445 C91.56461296 121.83761883 92.13824577 122.5466032 92.7292614 123.27707195 C113.99001218 148.95234616 149.4479718 163.23501639 181.88798332 166.94027996 C189.9983482 167.66668318 198.20626677 167.52614825 206.34303093 167.58493328 C219.55356165 167.69828028 231.55903253 167.91341495 241.99098015 177.12863445 C248.3509303 184.72788967 250.48283703 191.96611319 250.30348015 201.80832195 C249.5419278 209.89981568 246.0256274 216.7029883 239.99098015 222.12863445 C233.24498857 227.20162012 226.89066768 229.2998528 218.42848015 229.75363445 C217.14844109 229.82840008 215.86840202 229.9031657 214.5495739 229.98019695 C175.27289724 231.53041471 134.62265296 225.56111995 99.99098015 206.12863445 C98.77421043 205.47372701 97.55675727 204.82008783 96.3386364 204.16769695 C88.34957697 199.82216544 81.08117312 194.81565686 73.99098015 189.12863445 C72.97648796 188.3191032 71.96199577 187.50957195 70.9167614 186.67550945 C58.07301959 176.21797141 45.93349228 164.39123546 35.99098015 151.12863445 C35.33549187 150.2790617 35.33549187 150.2790617 34.6667614 149.41232586 C3.88161388 109.29674836 -6.94748012 61.65644072 -7.13401985 12.06613445 C-7.14114998 10.46632732 -7.14114998 10.46632732 -7.14842415 8.83420086 C-7.14624886 7.84726238 -7.14407356 6.86032391 -7.14183235 5.8434782 C-7.14070442 4.9578117 -7.13957649 4.0721452 -7.13841438 3.15964031 C-6.86305607 -1.16244611 -3.62979466 0.00223401 0 0 Z M349.99098015 240.12863445 C347.78964085 242.68426655 345.84726778 245.31483136 343.99098015 248.12863445 C343.28973015 249.13925945 342.58848015 250.14988445 341.86598015 251.19113445 C335.70279634 262.63832027 335.41127809 275.35861918 335.4897747 287.99307537 C335.48587344 289.7512263 335.48022643 291.50937405 335.4730038 293.26751447 C335.45835028 298.05817066 335.46836973 302.84849477 335.48274052 307.63913989 C335.49390398 312.82115501 335.48189016 318.00312557 335.47289848 323.18513775 C335.45900166 333.31954195 335.46649532 343.45382112 335.48157407 353.58821931 C335.4984737 365.3978221 335.49521903 377.20739409 335.49147999 389.01700523 C335.48560819 410.08988471 335.49974766 431.16270434 335.52442741 452.23556805 C335.54835837 472.67146325 335.55542604 493.10727854 335.54493523 513.54318523 C335.53352133 535.81703931 335.53160086 558.09085646 335.54603332 580.36471009 C335.54755911 582.74037663 335.54907947 585.11604317 335.55059433 587.49170971 C335.55135214 588.66048392 335.55210996 589.82925814 335.55289074 591.03344975 C335.55762895 599.26091061 335.55578549 607.48835495 335.55152893 615.71581554 C335.54659823 625.74223412 335.55260507 635.76857722 335.57242323 645.79497853 C335.58228187 650.90825458 335.58741564 656.02141577 335.57953072 661.13469791 C335.57245543 665.81879947 335.57932168 670.50266965 335.59713434 675.18674079 C335.60116676 676.87758964 335.60019932 678.56845971 335.59361548 680.25930056 C335.53815074 695.8418301 338.47480118 708.16271368 347.11598015 721.37863445 C357.12106841 730.94871888 368.1720658 736.07230736 381.99098015 736.12863445 C393.21660185 735.56430293 404.26607594 731.05445081 412.49098015 723.31613445 C424.51619473 709.92617389 425.43669584 695.92359277 425.3517437 678.77299786 C425.35305316 676.80422281 425.35568218 674.83544827 425.3595112 672.86667651 C425.36620034 667.4757143 425.35424507 662.08493182 425.33917701 656.6939925 C425.32619826 650.87340908 425.33060741 645.05283545 425.33288383 639.23224163 C425.3344554 629.15398357 425.32505832 619.07578386 425.30817032 608.99754047 C425.28376916 594.4261771 425.27596388 579.85483614 425.27220634 565.28345533 C425.2659104 541.64125638 425.24571311 517.99908779 425.21729851 494.35690594 C425.18973145 471.39336591 425.16848736 448.4298342 425.15577507 425.46628094 C425.1551832 424.40393628 425.1551832 424.40393628 425.15457938 423.32013012 C425.15062371 416.20759103 425.14679628 409.09505188 425.1430628 401.98251268 C425.13545481 387.49432883 425.12699105 373.00614552 425.11800957 358.51796246 C425.1175977 357.85186541 425.11718583 357.18576836 425.11676148 356.49948655 C425.08917419 312.04252317 425.04157779 267.58557684 424.99098015 223.12863445 C419.56905325 223.05346376 414.14744159 222.99955976 408.72511101 222.96383953 C406.88749203 222.94892041 405.04990757 222.92857778 403.2124157 222.90231609 C382.34787164 222.61197728 365.21383861 224.40537061 349.99098015 240.12863445 Z " fill="#03AA7E" transform="translate(130.00901985168457,109.87136554718018)"/>
<path d="M0 0 C1.31498069 -0.00322445 2.62996138 -0.00644889 3.98478997 -0.00977105 C5.46342613 -0.00829954 6.9420622 -0.0067318 8.42069817 -0.00507832 C9.97671879 -0.00694446 11.53273895 -0.00924437 13.08875835 -0.01194364 C17.38609981 -0.0180938 21.68342191 -0.01792425 25.98076677 -0.01674926 C30.60836561 -0.01654603 35.23595809 -0.02205705 39.863554 -0.02680683 C48.94373193 -0.03513481 58.02390338 -0.03786276 67.1040848 -0.03841921 C74.4932628 -0.03889397 81.88243866 -0.04094675 89.27161598 -0.04411983 C110.23279701 -0.05293727 131.1939729 -0.05753826 152.15515579 -0.05678936 C153.28659306 -0.0567494 154.41803034 -0.05670945 155.58375359 -0.05666828 C156.71657917 -0.0566274 157.84940476 -0.05658652 159.01655839 -0.0565444 C177.32386841 -0.05613906 195.63115775 -0.06567741 213.9384618 -0.07980665 C232.74766239 -0.09420805 251.55685294 -0.10107456 270.36605918 -0.10021287 C280.92075082 -0.09988189 291.47542085 -0.10258478 302.0301075 -0.11339092 C311.0302986 -0.12254618 320.03045835 -0.12463078 329.03065212 -0.1178815 C333.61468353 -0.11463961 338.19865498 -0.1144737 342.78268051 -0.12323475 C374.28696529 -0.17947418 401.61119693 0.08923714 429.99098015 15.12863445 C431.06605827 15.6494157 432.1411364 16.17019695 433.24879265 16.70675945 C435.57860067 17.91480806 437.3089872 19.0148408 439.24098015 20.75363445 C439.82750359 21.27828289 440.41402702 21.80293133 441.0183239 22.3434782 C441.66930046 22.93257977 442.32027702 23.52168133 442.99098015 24.12863445 C443.75539421 24.78992352 444.51980827 25.45121258 445.3073864 26.1325407 C462.12196754 40.84200997 473.99806547 57.86310798 480.67848015 79.25363445 C480.88126579 79.87939373 481.08405144 80.50515301 481.2929821 81.14987469 C485.72206639 96.19766545 485.28274061 112.18840389 485.1967907 127.70627117 C485.17836306 131.1505188 485.17628292 134.59449852 485.17652702 138.0387907 C485.17161594 140.25624092 485.16578942 142.47368935 485.1589489 144.69113445 C485.15783607 145.7069157 485.15672325 146.72269695 485.15557671 147.76925945 C485.14919685 148.73476727 485.142817 149.70027508 485.13624382 150.6950407 C485.13243202 151.52978924 485.12862022 152.36453777 485.12469292 153.22458172 C484.94135901 157.20633558 484.43115715 161.16704142 483.99098015 165.12863445 C464.85098015 165.12863445 445.71098015 165.12863445 425.99098015 165.12863445 C425.74098015 136.56613445 425.74098015 136.56613445 425.69312859 127.64596844 C425.48852214 107.52420587 424.34926568 88.71636519 409.86598015 73.25363445 C397.27400445 61.44440319 382.08982735 58.64607045 365.3171978 58.7678709 C364.00343707 58.76530763 362.68967635 58.76274435 361.33610469 58.7601034 C357.72827204 58.75346055 354.12071141 58.76530432 350.51291335 58.78043759 C346.60785729 58.79348435 342.70281458 58.78900243 338.79774284 58.78673077 C332.04478875 58.78516345 325.29192212 58.79451569 318.53899002 58.81144428 C308.77559344 58.83590363 299.01223882 58.84364662 289.24881492 58.84740826 C273.40544047 58.8539619 257.56211256 58.87389346 241.71876335 58.90231609 C226.33530217 58.92988487 210.95185365 58.95110463 195.56837273 58.96383953 C194.61893654 58.9646277 193.66950036 58.96541587 192.69129338 58.96622793 C187.92789298 58.97014325 183.16449249 58.97393433 178.40109193 58.97766364 C138.9310221 59.00872567 99.46100421 59.06153173 59.99098015 59.12863445 C59.99098015 61.43863445 59.99098015 63.74863445 59.99098015 66.12863445 C60.65098015 66.45863445 61.31098015 66.78863445 61.99098015 67.12863445 C62.41017213 68.73808688 62.74780147 70.36881961 63.05348015 72.00363445 C67.46765119 90.68583312 78.75818949 106.73449463 90.99098015 121.12863445 C91.56461296 121.83761883 92.13824577 122.5466032 92.7292614 123.27707195 C113.99001218 148.95234616 149.4479718 163.23501639 181.88798332 166.94027996 C189.9983482 167.66668318 198.20626677 167.52614825 206.34303093 167.58493328 C219.55356165 167.69828028 231.55903253 167.91341495 241.99098015 177.12863445 C248.3509303 184.72788967 250.48283703 191.96611319 250.30348015 201.80832195 C249.5419278 209.89981568 246.0256274 216.7029883 239.99098015 222.12863445 C233.24498857 227.20162012 226.89066768 229.2998528 218.42848015 229.75363445 C217.14844109 229.82840008 215.86840202 229.9031657 214.5495739 229.98019695 C175.27289724 231.53041471 134.62265296 225.56111995 99.99098015 206.12863445 C98.77421043 205.47372701 97.55675727 204.82008783 96.3386364 204.16769695 C88.34957697 199.82216544 81.08117312 194.81565686 73.99098015 189.12863445 C72.97648796 188.3191032 71.96199577 187.50957195 70.9167614 186.67550945 C58.07301959 176.21797141 45.93349228 164.39123546 35.99098015 151.12863445 C35.33549187 150.2790617 35.33549187 150.2790617 34.6667614 149.41232586 C3.88161388 109.29674836 -6.94748012 61.65644072 -7.13401985 12.06613445 C-7.14114998 10.46632732 -7.14114998 10.46632732 -7.14842415 8.83420086 C-7.14624886 7.84726238 -7.14407356 6.86032391 -7.14183235 5.8434782 C-7.14070442 4.9578117 -7.13957649 4.0721452 -7.13841438 3.15964031 C-6.86305607 -1.16244611 -3.62979466 0.00223401 0 0 Z " fill="#096C56" transform="translate(130.00901985168457,109.87136554718018)"/>
<path d="M0 0 C19.14 0 38.28 0 58 0 C59.20888225 3.62664676 59.13902601 6.93887948 59.12863445 10.71375179 C59.13038749 11.51123895 59.13214053 12.3087261 59.13394669 13.13037953 C59.13862982 15.82521288 59.13613527 18.51999282 59.13371277 21.21482849 C59.13557958 23.15734831 59.13787975 25.09986775 59.14057809 27.04238659 C59.14671857 32.39803162 59.14655987 37.75366109 59.14538372 43.10930884 C59.14518028 48.87830513 59.150693 54.64729634 59.15544128 60.41629028 C59.16376053 71.72504682 59.16649669 83.03379814 59.16705366 94.34255748 C59.16752819 103.53057337 59.16957975 112.71858752 59.17275429 121.90660286 C59.18012961 143.69489127 59.18627874 165.48317833 59.18575573 187.27146816 C59.18574015 187.96859642 59.18572457 188.66572468 59.18570852 189.38397804 C59.18562541 192.91750842 59.18552637 196.4510388 59.18542381 199.98456918 C59.18540387 200.68637196 59.18538392 201.38817473 59.18536337 202.11124426 C59.18532294 203.53046067 59.18528114 204.94967709 59.18523798 206.36889351 C59.18462505 228.4559779 59.19213434 250.54304695 59.20581055 272.63012695 C59.22116037 297.43046472 59.22976477 322.23079232 59.22884732 347.03113514 C59.22851473 360.16792915 59.23128898 373.30470584 59.24202538 386.4414959 C59.25110614 397.62450687 59.25332565 408.80749269 59.24651595 419.99050575 C59.24323854 425.70026605 59.24323785 431.40997803 59.2518692 437.11973381 C59.25968141 442.34112979 59.25835732 447.56243872 59.24958507 452.78383244 C59.24803836 454.67814903 59.24990979 456.57247194 59.25544515 458.46678107 C59.26244611 461.03143021 59.25725848 463.59576891 59.24888897 466.16040707 C59.25385715 466.90468817 59.25882533 467.64896928 59.26394406 468.41580436 C59.23607891 472.42394687 58.85123017 474.29753966 57 478 C56.67 321.25 56.34 164.5 56 3 C55.01 3 54.02 3 53 3 C53 2.34 53 1.68 53 1 C52.071875 1.2784375 52.071875 1.2784375 51.125 1.5625 C49 2 49 2 47 1 C46.67 1.66 46.34 2.32 46 3 C46 2.34 46 1.68 46 1 C45.34 1 44.68 1 44 1 C43.67 1.66 43.34 2.32 43 3 C43 2.34 43 1.68 43 1 C38.05 1 33.1 1 28 1 C27.67 1.66 27.34 2.32 27 3 C26.401875 2.814375 25.80375 2.62875 25.1875 2.4375 C22.83591238 1.77906313 22.83591238 1.77906313 20 3 C20 2.34 20 1.68 20 1 C17.54066009 1.11369211 15.0832091 1.24042651 12.625 1.375 C11.57699219 1.42140625 11.57699219 1.42140625 10.5078125 1.46875 C6.29814173 1.59499498 6.29814173 1.59499498 3 4 C2.79443682 5.94088172 2.79443682 5.94088172 2.9375 8.125 C3.0587371 11.08740213 2.90462238 13.70912712 2.50695759 16.66574192 C1.97817854 20.78941318 1.85528782 24.87371664 1.8613348 29.02781677 C1.85849258 29.79850406 1.85565036 30.56919134 1.85272202 31.36323279 C1.84442303 33.93674626 1.8431106 36.51021444 1.84178162 39.08374023 C1.837213 40.95093071 1.83221253 42.81812018 1.82681805 44.68530846 C1.81326172 49.80934122 1.80582584 54.93336736 1.79939139 60.05741334 C1.79137643 65.58562128 1.77768243 71.1138155 1.76467896 76.64201355 C1.74293176 86.21773854 1.72478084 95.79346493 1.70907402 105.36920166 C1.68635941 119.21410258 1.65821877 133.0589883 1.62875474 146.9038763 C1.58109836 169.36641216 1.53782043 191.82895427 1.49731445 214.29150391 C1.45795674 236.11149582 1.41653232 257.93148221 1.37231445 279.75146484 C1.37095192 280.42423185 1.36958939 281.09699886 1.36818558 281.79015274 C1.35450002 288.54644923 1.3407725 295.30274563 1.32701423 302.05904197 C1.21166441 358.70601637 1.10339218 415.35300259 1 472 C0.67 472 0.34 472 0 472 C0 316.24 0 160.48 0 0 Z " fill="#0C4A3B" transform="translate(556,333)"/>
<path d="M0 0 C1.31991428 -0.00260775 2.63982856 -0.00521549 3.99974024 -0.00790226 C5.48388852 -0.00573969 6.96803667 -0.00348301 8.45218468 -0.0011425 C10.01390665 -0.00229335 11.57562836 -0.00388062 13.13734949 -0.00586975 C17.45013782 -0.01006873 21.76290421 -0.00796976 26.07569265 -0.00488353 C30.71949702 -0.00263168 35.36329746 -0.00610814 40.00710106 -0.00886345 C49.11668067 -0.01332393 58.22625207 -0.01234303 67.33583201 -0.00945081 C74.74414792 -0.00719592 82.15246152 -0.00688463 89.56077766 -0.00797462 C90.61372396 -0.00812786 91.66667026 -0.00828109 92.75152402 -0.00843897 C94.89049352 -0.00875869 97.02946302 -0.0090829 99.16843252 -0.00941156 C119.2589648 -0.01226766 139.34949253 -0.00897831 159.44002406 -0.00361119 C176.66375559 0.00084788 193.88748037 0.00008858 211.11121178 -0.00452995 C231.10628253 -0.00988911 251.10134927 -0.01198337 271.09642065 -0.00891769 C273.23197007 -0.00859915 275.3675195 -0.00828477 277.50306892 -0.00797462 C278.55378927 -0.00782035 279.60450961 -0.00766607 280.68706996 -0.00750712 C288.07591477 -0.00664531 295.46475704 -0.00809781 302.85360146 -0.01045418 C311.87450975 -0.01326766 320.89540934 -0.01248172 329.91631664 -0.00717343 C334.5155419 -0.00455587 339.11475269 -0.00349807 343.71397781 -0.00682259 C347.93369717 -0.00982641 352.15338881 -0.00812542 356.37310569 -0.00284503 C357.89082899 -0.00173803 359.40855468 -0.00227333 360.9262764 -0.00472082 C368.41237499 -0.01585609 375.88477763 0.08803272 383.35996628 0.50877762 C384.58221763 0.57724116 385.80446898 0.64570471 387.06375825 0.71624291 C389.96863365 1.12584114 389.96863365 1.12584114 391.96863365 3.12584114 C260.95863365 3.12584114 129.94863365 3.12584114 -5.03136635 3.12584114 C-4.37136635 16.32584114 -3.71136635 29.52584114 -3.03136635 43.12584114 C-3.03136635 46.75584114 -3.03136635 50.38584114 -3.03136635 54.12584114 C-3.69136635 53.79584114 -4.35136635 53.46584114 -5.03136635 53.12584114 C-5.44201088 50.82286263 -5.44201088 50.82286263 -5.66417885 47.74693489 C-5.79022499 46.03920906 -5.79022499 46.03920906 -5.91881752 44.29698372 C-5.99720863 43.06488167 -6.07559975 41.83277962 -6.15636635 40.56334114 C-6.24055824 39.31383675 -6.32475014 38.06433235 -6.4114933 36.77696419 C-6.93858451 28.32908596 -7.21238003 19.90233764 -7.21886635 11.43834114 C-7.21967201 10.41216682 -7.22047768 9.38599251 -7.22130775 8.328722 C-7.15686842 0.00101137 -7.15686842 0.00101137 0 0 Z " fill="#0F5647" transform="translate(130.0313663482666,109.87415885925293)"/>
<path d="M0 0 C106.92 0 213.84 0 324 0 C324 0.33 324 0.66 324 1 C251.07 1 178.14 1 103 1 C102.67 1.66 102.34 2.32 102 3 C102 2.34 102 1.68 102 1 C82.86 1 63.72 1 44 1 C44.08226376 59.91539694 44.17383929 118.83077107 44.28005161 177.74612983 C44.29257779 184.69582468 44.30500603 191.64551972 44.31738281 198.59521484 C44.31861614 199.28680397 44.31984946 199.97839311 44.32112016 200.69093948 C44.3610712 223.11931174 44.39455154 245.54768801 44.42468691 267.97607543 C44.45655936 291.67119586 44.4957824 315.36629202 44.54279006 339.06138778 C44.57072231 353.2614315 44.59273475 367.46145939 44.60726251 381.66152325 C44.61777481 391.38856931 44.63556538 401.11558478 44.65916704 410.84260783 C44.67258232 416.46120138 44.6827047 422.07975191 44.68421364 427.69836235 C44.68566413 432.83662444 44.69620087 437.97478275 44.71413441 443.113013 C44.71900621 444.97713059 44.72046981 446.84126066 44.71827881 448.70538333 C44.71579809 451.22936849 44.72546053 453.75301924 44.73828697 456.27696609 C44.73463729 457.00926998 44.73098761 457.74157386 44.72722733 458.49606878 C44.76014 462.23072914 45.13881661 464.76726869 47 468 C46.65948923 477.66526728 43.78080176 488.11708851 38 496 C37.34 496 36.68 496 36 496 C35.731875 496.763125 35.46375 497.52625 35.1875 498.3125 C34.04865495 500.88988618 33.18583329 502.26954864 31 504 C30.34 504 29.68 504 29 504 C28.83242188 504.59167969 28.66484375 505.18335938 28.4921875 505.79296875 C26.20699829 509.1728952 22.82652668 510.00550076 19.125 511.3125 C18.04412109 511.72725586 18.04412109 511.72725586 16.94140625 512.15039062 C13.18577204 513.52330663 10.81009004 514.22689758 7 513 C8.03898438 512.59910156 9.07796875 512.19820312 10.1484375 511.78515625 C22.13801599 506.97637093 30.93576614 501.28908208 37.74609375 489.9453125 C42.43960087 478.92068829 42.43179948 468.414591 42.39872742 456.6443634 C42.40417157 454.6755857 42.41092509 452.70681126 42.41886932 450.73804206 C42.43685612 445.34710901 42.43634226 439.956314 42.43273985 434.56535804 C42.43211514 428.74475189 42.44874413 422.9241917 42.46325684 417.10360718 C42.48603361 407.02536998 42.49792637 396.94716733 42.50238609 386.86890602 C42.50884986 372.29751674 42.53178136 357.7261842 42.55872939 343.15482088 C42.60225505 319.51264725 42.63198668 295.87047448 42.65356445 272.22827148 C42.67455451 249.26471669 42.70181869 226.30118329 42.73754883 203.33764648 C42.73864831 202.62941671 42.73974778 201.92118694 42.74088058 201.19149567 C42.75192921 194.07895634 42.7631051 186.96641721 42.7743742 179.85387823 C42.79732637 165.36569593 42.81942939 150.87751239 42.84101868 136.389328 C42.8420123 135.72323095 42.84300591 135.0571339 42.84402964 134.3708521 C42.91024888 89.91391826 42.95599439 45.4569605 43 1 C28.81 1 14.62 1 0 1 C0 0.67 0 0.34 0 0 Z " fill="#0D825F" transform="translate(512,332)"/>
<path d="M0 0 C0.33 0 0.66 0 1 0 C1.00203479 0.87373312 1.00203479 0.87373312 1.00411069 1.76511741 C1.08471811 36.26946231 1.17565511 70.77376408 1.28005161 105.27804528 C1.29257085 109.41876173 1.30500356 113.55947844 1.31738281 117.70019531 C1.31984881 118.52455575 1.3223148 119.34891618 1.32485552 120.19825724 C1.36460563 133.55538757 1.39734299 146.91252638 1.42749982 160.26968142 C1.45858708 173.96999663 1.49718475 187.67027574 1.54279006 201.37055039 C1.57070506 209.82792311 1.59272501 218.28526935 1.60726251 226.74267581 C1.61778485 232.5380994 1.6355862 238.3334718 1.65916704 244.12885687 C1.67256598 247.47512594 1.6816252 250.82125931 1.68421364 254.16756439 C1.68752057 257.79212856 1.70295563 261.41644129 1.7215271 265.04095459 C1.71959237 266.10320495 1.71765763 267.16545532 1.71566427 268.25989509 C1.72312976 269.22927646 1.73059525 270.19865783 1.73828697 271.1974144 C1.74170446 272.45276981 1.74170446 272.45276981 1.74519098 273.73348594 C2.02523071 276.22442595 2.85382823 277.79511963 4 280 C3.65948923 289.66526728 0.78080176 300.11708851 -5 308 C-5.66 308 -6.32 308 -7 308 C-7.268125 308.763125 -7.53625 309.52625 -7.8125 310.3125 C-8.95134505 312.88988618 -9.81416671 314.26954864 -12 316 C-12.66 316 -13.32 316 -14 316 C-14.16757812 316.59167969 -14.33515625 317.18335938 -14.5078125 317.79296875 C-16.79300171 321.1728952 -20.17347332 322.00550076 -23.875 323.3125 C-24.59558594 323.58900391 -25.31617188 323.86550781 -26.05859375 324.15039062 C-29.81422796 325.52330663 -32.18990996 326.22689758 -36 325 C-34.96101562 324.59910156 -33.92203125 324.19820312 -32.8515625 323.78515625 C-20.86198401 318.97637093 -12.06423386 313.28908208 -5.25390625 301.9453125 C-1.57453768 293.30280814 -0.55975247 285.06719426 -0.60127258 275.74360657 C-0.59462576 274.55814481 -0.58797893 273.37268306 -0.58113068 272.15129822 C-0.56580731 268.89240217 -0.56364437 265.63381689 -0.56726015 262.37489712 C-0.56788765 258.84877672 -0.55122993 255.32273094 -0.53674316 251.79664612 C-0.51401914 245.69793954 -0.5020828 239.59928984 -0.49761391 233.50054359 C-0.49113696 224.68295368 -0.46817251 215.86546632 -0.44127061 207.04791787 C-0.39806087 192.73972337 -0.36806098 178.43153322 -0.34643555 164.12329102 C-0.3254084 150.22971468 -0.29811819 136.33617375 -0.26245117 122.44262695 C-0.26025235 121.58526219 -0.25805352 120.72789742 -0.25578807 119.8445519 C-0.24471798 115.54311609 -0.23352525 111.24168061 -0.22227156 106.94024527 C-0.12916882 71.29352709 -0.05753273 35.64679267 0 0 Z " fill="#1C876F" transform="translate(555,520)"/>
<path d="M0 0 C107.25 0 214.5 0 325 0 C325 0.33 325 0.66 325 1 C218.74 1.33 112.48 1.66 3 2 C3 4.31 3 6.62 3 9 C3.66 9.33 4.32 9.66 5 10 C5.41919198 11.60945243 5.75682132 13.24018516 6.0625 14.875 C7.67772912 21.95978802 10.74512946 28.13627938 14.03930664 34.58740234 C14.63086548 35.76810303 14.63086548 35.76810303 15.234375 36.97265625 C15.59756836 37.67656494 15.96076172 38.38047363 16.33496094 39.10571289 C17 41 17 41 16 44 C11.64452935 35.69632349 7.54690884 27.33555986 4.0625 18.625 C3.76851318 17.91359863 3.47452637 17.20219727 3.17163086 16.46923828 C0.91193313 10.66164773 0.66095431 6.60954313 0 0 Z " fill="#02362B" transform="translate(187,167)"/>
<path d="M0 0 C0.33 0 0.66 0 1 0 C4.07796972 21.41196329 -4.71265851 41.68869596 -17.30664062 58.77246094 C-34.6378826 81.11529923 -57.66063596 94.64027999 -85.29296875 99.58984375 C-90.14442937 100.12662285 -94.93505798 100.18417523 -99.8125 100.1875 C-100.74642578 100.19974609 -101.68035156 100.21199219 -102.64257812 100.22460938 C-108.98847174 100.23782081 -114.83125466 99.48153974 -121 98 C-121 97.67 -121 97.34 -121 97 C-120.04971924 97.02618408 -119.09943848 97.05236816 -118.12036133 97.0793457 C-95.10469528 97.65709664 -73.51524042 98.03603114 -53 86 C-52.12601563 85.54238281 -51.25203125 85.08476563 -50.3515625 84.61328125 C-45.49427709 82.12386639 -45.49427709 82.12386639 -42 78 C-40.948125 77.443125 -39.89625 76.88625 -38.8125 76.3125 C-34.17357083 73.80941114 -31.31260199 70.00651363 -28 66 C-26.22037675 64.17094278 -24.43224531 62.39390097 -22.546875 60.67578125 C-20.77210475 58.75311348 -19.70580194 56.81884988 -18.5 54.5 C-16.93110006 51.48288474 -15.3882935 49.3882935 -13 47 C-12.02284391 45.19809386 -12.02284391 45.19809386 -11.3125 43.3125 C-10.879375 42.219375 -10.44625 41.12625 -10 40 C-9.34 40 -8.68 40 -8 40 C-7.855625 38.741875 -7.71125 37.48375 -7.5625 36.1875 C-7.26251314 33.57332877 -6.84186703 31.52560108 -6 29 C-5.34 29 -4.68 29 -4 29 C-3.93941406 28.37351562 -3.87882813 27.74703125 -3.81640625 27.1015625 C-3.69072266 25.87566406 -3.69072266 25.87566406 -3.5625 24.625 C-3.44068359 23.40683594 -3.44068359 23.40683594 -3.31640625 22.1640625 C-3 20 -3 20 -2 18 C-1.78308608 16.62793479 -1.61076837 15.24860728 -1.46484375 13.8671875 C-1.37783203 13.06152344 -1.29082031 12.25585938 -1.20117188 11.42578125 C-1.11416016 10.58402344 -1.02714844 9.74226562 -0.9375 8.875 C-0.84662109 8.02550781 -0.75574219 7.17601562 -0.66210938 6.30078125 C-0.4379632 4.2008855 -0.21853552 2.10048707 0 0 Z " fill="#0C7D5E" transform="translate(612,803)"/>
<path d="M0 0 C9.30558908 4.28057098 15.57919735 12.17698821 19.4453125 21.4765625 C22.26891795 29.14063444 24.13082653 35.98822534 24.11352539 44.18896484 C24.11344986 45.38975677 24.11337433 46.59054871 24.11329651 47.82772827 C24.10813522 49.10918732 24.10297394 50.39064636 24.09765625 51.7109375 C24.09578895 53.04757636 24.09436652 54.38421592 24.09336853 55.72085571 C24.08956795 59.22249269 24.07975891 62.72408756 24.06866455 66.22570801 C24.05839732 69.80541402 24.05380461 73.38512711 24.04882812 76.96484375 C24.03866616 83.97659957 24.01908828 90.98824007 24 98 C42.48 98 60.96 98 80 98 C80 76.88 80 55.76 80 34 C80.33 34 80.66 34 81 34 C81.77338148 37.42871067 82.12617443 40.59424796 82.12939453 44.10644531 C82.13254669 45.09807678 82.13569885 46.08970825 82.13894653 47.11138916 C82.13591019 48.7036734 82.13591019 48.7036734 82.1328125 50.328125 C82.13376923 51.43170349 82.13472595 52.53528198 82.13571167 53.67230225 C82.13639149 56.0056565 82.134551 58.33901267 82.13037109 60.67236328 C82.1250405 64.22302567 82.13031229 67.77356039 82.13671875 71.32421875 C82.13605753 73.59635444 82.13477548 75.86849006 82.1328125 78.140625 C82.13483673 79.1940509 82.13686096 80.24747681 82.13894653 81.33282471 C82.13421829 82.83918488 82.13421829 82.83918488 82.12939453 84.37597656 C82.12859894 85.24691956 82.12780334 86.11786255 82.12698364 87.01519775 C81.95643006 91.02412918 81.44311288 95.01198412 81 99 C61.86 99 42.72 99 23 99 C22.75 70.4375 22.75 70.4375 22.70214844 61.51733398 C22.50439788 42.0777072 21.74089199 22.64204145 7.29492188 7.94604492 C5.68828727 6.37440865 4.05863065 4.83258346 2.4140625 3.30078125 C1.61742187 2.54152344 0.82078125 1.78226563 0 1 C0 0.67 0 0.34 0 0 Z " fill="#0C5242" transform="translate(533,176)"/>
<path d="M0 0 C19.14 0 38.28 0 58 0 C58 56.43 58 112.86 58 171 C57.67 171 57.34 171 57 171 C56.67 115.56 56.34 60.12 56 3 C55.01 3 54.02 3 53 3 C53 2.34 53 1.68 53 1 C52.071875 1.2784375 52.071875 1.2784375 51.125 1.5625 C49 2 49 2 47 1 C46.67 1.66 46.34 2.32 46 3 C46 2.34 46 1.68 46 1 C45.34 1 44.68 1 44 1 C43.67 1.66 43.34 2.32 43 3 C43 2.34 43 1.68 43 1 C38.05 1 33.1 1 28 1 C27.67 1.66 27.34 2.32 27 3 C26.401875 2.814375 25.80375 2.62875 25.1875 2.4375 C22.83591238 1.77906313 22.83591238 1.77906313 20 3 C20 2.34 20 1.68 20 1 C17.54066009 1.11369211 15.0832091 1.24042651 12.625 1.375 C11.57699219 1.42140625 11.57699219 1.42140625 10.5078125 1.46875 C6.29814173 1.59499498 6.29814173 1.59499498 3 4 C2.79443682 5.94088172 2.79443682 5.94088172 2.9375 8.125 C3.04461691 12.53107576 2.63400879 16.64118955 2 21 C1.67 21 1.34 21 1 21 C0.67 14.07 0.34 7.14 0 0 Z " fill="#001F15" transform="translate(556,333)"/>
<path d="M0 0 C0.33 0 0.66 0 1 0 C1.29132813 1.22074219 1.58265625 2.44148437 1.8828125 3.69921875 C7.33628383 25.89084348 17.25022905 46.16671085 35 61 C35.72960937 61.64066406 36.45921875 62.28132812 37.2109375 62.94140625 C49.65499173 73.50438252 63.51082569 78.59834013 79 83 C79 83.33 79 83.66 79 84 C71.99950542 83.63198763 66.16992756 82.36106819 59.75 79.5625 C58.93152588 79.21050537 58.11305176 78.85851074 57.26977539 78.49584961 C49.38390405 74.96064452 42.6884832 70.43067441 36 65 C35.09894531 64.26910156 34.19789063 63.53820312 33.26953125 62.78515625 C17.28171785 49.07777515 4.02918202 29.00607255 0 8 C-0.12205329 5.32459184 -0.04467313 2.68038762 0 0 Z " fill="#0A8E67" transform="translate(411,816)"/>
<path d="M0 0 C30.69 0 61.38 0 93 0 C93 0.33 93 0.66 93 1 C48.45 1.495 48.45 1.495 3 2 C3 4.31 3 6.62 3 9 C3.66 9.33 4.32 9.66 5 10 C5.41919198 11.60945243 5.75682132 13.24018516 6.0625 14.875 C7.67772912 21.95978802 10.74512946 28.13627938 14.03930664 34.58740234 C14.63086548 35.76810303 14.63086548 35.76810303 15.234375 36.97265625 C15.59756836 37.67656494 15.96076172 38.38047363 16.33496094 39.10571289 C17 41 17 41 16 44 C11.64452935 35.69632349 7.54690884 27.33555986 4.0625 18.625 C3.76851318 17.91359863 3.47452637 17.20219727 3.17163086 16.46923828 C0.91193313 10.66164773 0.66095431 6.60954313 0 0 Z " fill="#02372D" transform="translate(187,167)"/>
<path d="M0 0 C2.77514604 2.77514604 3.25371305 5.99934175 4.25 9.6875 C11.70723355 35.93828734 24.35100114 59.50980289 41 81 C38 81 38 81 36.34375 79.4453125 C21.60843431 60.90129233 10.85691542 39.31248132 3.3125 16.9375 C2.97323486 15.93251465 2.63396973 14.9275293 2.28442383 13.89208984 C0.75895377 9.14789008 -0.4512805 5.04923274 0 0 Z " fill="#0C453A" transform="translate(130,182)"/>
<path d="M0 0 C9.50677192 1.36063464 18.17358294 7.49791497 25 14 C25.75539063 14.65613281 26.51078125 15.31226563 27.2890625 15.98828125 C40.74425168 27.71470774 54.90626602 43.3417222 60 61 C59.71129691 62.34370362 59.38330648 63.68016477 59 65 C58.27296875 63.36804688 58.27296875 63.36804688 57.53125 61.703125 C51.95766016 49.39852646 45.87122081 38.61478185 36.46875 28.7421875 C35 27 35 27 35 25 C34.34 25 33.68 25 33 25 C31.84723967 23.8821718 30.70057854 22.75763207 29.578125 21.609375 C23.14996134 15.05392097 16.57893389 10.34854234 8.49682617 6.05761719 C7.83013916 5.7021582 7.16345215 5.34669922 6.4765625 4.98046875 C5.87924316 4.67004639 5.28192383 4.35962402 4.66650391 4.03979492 C2.83196566 2.89515701 1.47029611 1.57747605 0 0 Z " fill="#0B4C3E" transform="translate(548,120)"/>
<path d="M0 0 C2.92856553 4.55799297 1.65623121 8.51018854 0.76953125 13.6015625 C-0.69296091 20.06028422 -3.05319353 26.61799118 -7 32 C-7.66 32 -8.32 32 -9 32 C-9.268125 32.763125 -9.53625 33.52625 -9.8125 34.3125 C-10.95134505 36.88988618 -11.81416671 38.26954864 -14 40 C-14.66 40 -15.32 40 -16 40 C-16.16757812 40.59167969 -16.33515625 41.18335938 -16.5078125 41.79296875 C-18.79300171 45.1728952 -22.17347332 46.00550076 -25.875 47.3125 C-26.95587891 47.72725586 -26.95587891 47.72725586 -28.05859375 48.15039062 C-31.81422796 49.52330663 -34.18990996 50.22689758 -38 49 C-36.96101562 48.59910156 -35.92203125 48.19820312 -34.8515625 47.78515625 C-22.11389464 42.67632692 -11.64710989 36.1295305 -6 23 C-4.36572226 18.0769905 -3.14590614 13.05546827 -2 8 C-1.67 8 -1.34 8 -1 8 C-0.67 5.36 -0.34 2.72 0 0 Z " fill="#0C6852" transform="translate(557,796)"/>
<path d="M0 0 C0.66 0.33 1.32 0.66 2 1 C1.09121094 1.70962891 1.09121094 1.70962891 0.1640625 2.43359375 C-24.09126044 21.57664093 -37.02348445 41.27745325 -45 71 C-45.33 71 -45.66 71 -46 71 C-45.39027135 51.7935475 -35.0840448 34.36944334 -23 20 C-22.50628906 19.36191406 -22.01257813 18.72382813 -21.50390625 18.06640625 C-15.96807171 11.20528464 -7.92878853 3.96439426 0 0 Z " fill="#089A6F" transform="translate(457,292)"/>
<path d="M0 0 C9.30558908 4.28057098 15.57919735 12.17698821 19.4453125 21.4765625 C22.28276467 29.17821839 24.13062046 36.04093616 24.11352539 44.28076172 C24.11344986 45.5015744 24.11337433 46.72238708 24.11329651 47.98019409 C24.10813522 49.28352692 24.10297394 50.58685974 24.09765625 51.9296875 C24.09578901 53.28874662 24.09436655 54.64780642 24.09336853 56.00686646 C24.08956748 59.56768686 24.07975802 63.12846587 24.06866455 66.68927002 C24.05839835 70.32929932 24.05385979 73.96933537 24.04882812 77.609375 C24.03813339 84.73960017 24.02108622 91.86979737 24 99 C23.67 99 23.34 99 23 99 C22.99635437 98.29415268 22.99270874 97.58830536 22.98895264 96.86106873 C22.95075352 90.14021749 22.89354792 83.41975384 22.81609726 76.69924831 C22.77693921 73.24585274 22.74459876 69.79270006 22.72900391 66.33911133 C22.78584332 34.66006568 22.78584332 34.66006568 7.29492188 7.94604492 C5.68828727 6.37440865 4.05863065 4.83258346 2.4140625 3.30078125 C1.61742187 2.54152344 0.82078125 1.78226563 0 1 C0 0.67 0 0.34 0 0 Z " fill="#07382D" transform="translate(533,176)"/>
<path d="M0 0 C0.33 0 0.66 0 1 0 C3.64354007 18.38984397 -2.32167258 34.36660908 -11.625 50.125 C-12.00938232 50.77734619 -12.39376465 51.42969238 -12.78979492 52.10180664 C-14.65813778 55.16540207 -15.97095726 56.98063817 -19 59 C-17.68258267 55.37710236 -15.96838324 52.16873361 -14.01953125 48.84765625 C-12.44208954 45.98892089 -11.23321403 43.02137438 -10 40 C-9.34 40 -8.68 40 -8 40 C-7.7834375 38.1128125 -7.7834375 38.1128125 -7.5625 36.1875 C-7.26251314 33.57332877 -6.84186703 31.52560108 -6 29 C-5.34 29 -4.68 29 -4 29 C-3.93941406 28.37351562 -3.87882813 27.74703125 -3.81640625 27.1015625 C-3.73261719 26.28429687 -3.64882813 25.46703125 -3.5625 24.625 C-3.44068359 23.40683594 -3.44068359 23.40683594 -3.31640625 22.1640625 C-3 20 -3 20 -2 18 C-1.78308608 16.62793479 -1.61076837 15.24860728 -1.46484375 13.8671875 C-1.37783203 13.06152344 -1.29082031 12.25585938 -1.20117188 11.42578125 C-1.11416016 10.58402344 -1.02714844 9.74226562 -0.9375 8.875 C-0.84662109 8.02550781 -0.75574219 7.17601562 -0.66210938 6.30078125 C-0.4379632 4.2008855 -0.21853552 2.10048707 0 0 Z " fill="#0C5644" transform="translate(612,803)"/>
<path d="M0 0 C0.33 0 0.66 0 1 0 C1.02312821 7.67536627 1.04091753 15.35072896 1.05181217 23.02612209 C1.05703995 26.58977422 1.06413569 30.15340257 1.07543945 33.71704102 C1.08834176 37.81006097 1.09322906 41.9030558 1.09765625 45.99609375 C1.10281754 47.28148544 1.10797882 48.56687714 1.11329651 49.89122009 C1.11337204 51.07236893 1.11344757 52.25351776 1.11352539 53.47045898 C1.115746 54.51636703 1.11796661 55.56227509 1.12025452 56.63987732 C1 59 1 59 0 60 C-1.47354348 60.09304018 -2.95150591 60.11746265 -4.42797852 60.11352539 C-5.36887833 60.11344986 -6.30977814 60.11337433 -7.27919006 60.11329651 C-8.30209641 60.10813522 -9.32500275 60.10297394 -10.37890625 60.09765625 C-11.42070541 60.0962413 -12.46250458 60.09482635 -13.53587341 60.09336853 C-16.87811094 60.0877508 -20.22028257 60.0751953 -23.5625 60.0625 C-25.82226466 60.05748728 -28.08203037 60.05292398 -30.34179688 60.04882812 C-35.89455391 60.03777561 -41.44727225 60.02102024 -47 60 C-47 59.67 -47 59.34 -47 59 C-45.86820312 58.93941406 -44.73640625 58.87882812 -43.5703125 58.81640625 C-42.08852855 58.73200083 -40.6067584 58.64735283 -39.125 58.5625 C-38.37863281 58.52318359 -37.63226562 58.48386719 -36.86328125 58.44335938 C-32.80013136 58.28426376 -32.80013136 58.28426376 -29 57 C-25.535 57.495 -25.535 57.495 -22 58 C-14.74 58 -7.48 58 0 58 C0 38.86 0 19.72 0 0 Z " fill="#189476" transform="translate(555,216)"/>
<path d="M0 0 C3.69318093 3.53546502 6.83104809 7.26425095 9.875 11.375 C13.59905902 16.31175297 17.47027841 20.77538919 22 25 C22.804375 25.825 23.60875 26.65 24.4375 27.5 C30.65408878 33.56496466 37.0032752 38.48452729 44.42749023 42.97949219 C45.98312238 43.93699999 47.49620775 44.96297473 49 46 C49 46.66 49 47.32 49 48 C44.669499 46.50253704 41.12626576 44.22335844 37.4375 41.5625 C36.82616211 41.12220459 36.21482422 40.68190918 35.58496094 40.22827148 C21.93280627 30.20479024 8.79054193 17.53631515 0 3 C0 2.01 0 1.02 0 0 Z " fill="#0A4B3E" transform="translate(205,212)"/>
<path d="M0 0 C5.41007415 0.33812963 9.1763219 3.41626931 13 7 C19.49118105 15.20367856 20.96819398 23.71293899 20 34 C18.0501155 41.99895801 13.85969408 48.42687061 7 53 C6.01 52.67 5.02 52.34 4 52 C4.77923828 51.41605469 4.77923828 51.41605469 5.57421875 50.8203125 C12.30946047 45.41717958 16.33136394 40.08601853 17.4765625 31.375 C17.78488356 23.3261976 16.97444855 16.54532704 12 10 C10.67011887 8.99541354 9.33743723 7.99450461 8 7 C8 6.34 8 5.68 8 5 C6.8553125 4.5978125 6.8553125 4.5978125 5.6875 4.1875 C3.12619116 3.05575888 1.80307062 2.08776599 0 0 Z " fill="#0C4C3E" transform="translate(360,281)"/>
<path d="M0 0 C4.56184128 1.58748587 8.29478169 4.01225669 12.3125 6.625 C27.12799762 16.0123327 42.43136667 22.29995026 59 28 C59 28.33 59 28.66 59 29 C53.5022247 28.47089994 48.66300377 27.44916216 43.5 25.4375 C42.81639404 25.17501465 42.13278809 24.9125293 41.4284668 24.64208984 C28.91891051 19.71377945 17.26557014 13.30573759 6 6 C4.88882813 5.30390625 3.77765625 4.6078125 2.6328125 3.890625 C1.76398438 3.26671875 0.89515625 2.6428125 0 2 C0 1.34 0 0.68 0 0 Z " fill="#0B473B" transform="translate(209,301)"/>
<path d="M0 0 C18.81 0 37.62 0 57 0 C56.67 0.99 56.34 1.98 56 3 C55.01 3 54.02 3 53 3 C53 2.34 53 1.68 53 1 C52.071875 1.2784375 52.071875 1.2784375 51.125 1.5625 C49 2 49 2 47 1 C46.67 1.66 46.34 2.32 46 3 C46 2.34 46 1.68 46 1 C45.34 1 44.68 1 44 1 C43.67 1.66 43.34 2.32 43 3 C43 2.34 43 1.68 43 1 C38.05 1 33.1 1 28 1 C27.67 1.66 27.34 2.32 27 3 C26.401875 2.814375 25.80375 2.62875 25.1875 2.4375 C22.83591238 1.77906313 22.83591238 1.77906313 20 3 C20 2.34 20 1.68 20 1 C17.54066009 1.11369211 15.0832091 1.24042651 12.625 1.375 C11.57699219 1.42140625 11.57699219 1.42140625 10.5078125 1.46875 C6.29814173 1.59499498 6.29814173 1.59499498 3 4 C2.79443682 5.94088172 2.79443682 5.94088172 2.9375 8.125 C3.04461691 12.53107576 2.63400879 16.64118955 2 21 C1.67 21 1.34 21 1 21 C0.67 14.07 0.34 7.14 0 0 Z " fill="#084B3D" transform="translate(556,333)"/>
<path d="M0 0 C3.7926084 3.25241492 5.33610334 7.6432944 7.40234375 12.08984375 C8.97590641 14.95611314 10.66886113 16.74941884 13 19 C13 19.66 13 20.32 13 21 C13.54914063 21.268125 14.09828125 21.53625 14.6640625 21.8125 C18.21904806 23.61971674 21.67428616 25.60523164 25.1484375 27.5625 C30.9650848 30.49472768 36.47932209 31.46375195 42.875 32.125 C43.65875 32.21136719 44.4425 32.29773438 45.25 32.38671875 C47.16603159 32.5970149 49.0829366 32.79932744 51 33 C51 33.33 51 33.66 51 34 C35.59680576 34.56124999 23.65892788 32.70640385 11.7421875 21.96484375 C6.3634185 16.33042984 0 8.06447433 0 0 Z " fill="#088E67" transform="translate(467,813)"/>
<path d="M0 0 C0.99 0 1.98 0 3 0 C3 2.97 3 5.94 3 9 C3.66 9.33 4.32 9.66 5 10 C5.41919198 11.60945243 5.75682132 13.24018516 6.0625 14.875 C7.67772912 21.95978802 10.74512946 28.13627938 14.03930664 34.58740234 C14.63086548 35.76810303 14.63086548 35.76810303 15.234375 36.97265625 C15.59756836 37.67656494 15.96076172 38.38047363 16.33496094 39.10571289 C17 41 17 41 16 44 C0.22458506 13.92427386 0.22458506 13.92427386 0 0 Z " fill="#0A4A3D" transform="translate(187,167)"/>
<path d="M0 0 C3.48324734 1.45649059 5.34778456 3.30384882 7.75 6.1875 C11.54026509 10.56410444 15.53977236 14.32089804 20 18 C20.97324219 18.80308594 21.94648438 19.60617187 22.94921875 20.43359375 C25.62619113 22.63069912 28.30978363 24.81914445 31 27 C30.01 27.33 29.02 27.66 28 28 C25.73699815 26.39150891 23.74694416 24.78111215 21.6875 22.9375 C21.0795459 22.40398926 20.4715918 21.87047852 19.84521484 21.32080078 C15.14145153 17.14061615 10.59842127 12.79987879 6.125 8.375 C5.51229248 7.77163818 4.89958496 7.16827637 4.26831055 6.54663086 C0 2.24640771 0 2.24640771 0 0 Z " fill="#0C463A" transform="translate(177,272)"/>
<path d="M0 0 C5.42164693 1.71819024 10.66573182 3.81398658 15.9375 5.9375 C16.80568359 6.28490234 17.67386719 6.63230469 18.56835938 6.99023438 C23.40689021 8.93222974 28.21732098 10.92425223 33 13 C29.75963797 14.07890672 27.98411705 13.93402349 24.8046875 12.7421875 C23.6132312 12.30144897 23.6132312 12.30144897 22.39770508 11.85180664 C21.14896606 11.36828735 21.14896606 11.36828735 19.875 10.875 C19.02639404 10.5545874 18.17778809 10.2341748 17.3034668 9.90405273 C11.35061999 7.6199335 5.57467981 5.10978282 0 2 C0 1.34 0 0.68 0 0 Z " fill="#0B5142" transform="translate(255,260)"/>
<path d="M0 0 C-2.5505617 2.5505617 -4.58719772 2.82325272 -8.0625 3.75 C-16.79966757 6.34701445 -22.73815695 10.54840413 -29 17 C-29.66 17 -30.32 17 -31 17 C-27.97865994 9.37875458 -18.80178722 5.11749665 -11.6875 2 C-7.59880231 0.30427818 -4.42632199 -0.20922054 0 0 Z " fill="#08996E" transform="translate(510,333)"/>
<path d="M0 0 C-0.33 0.66 -0.66 1.32 -1 2 C-3.44836994 2.32279504 -5.78975363 2.51743286 -8.25 2.625 C-9.33003296 2.68083252 -9.33003296 2.68083252 -10.43188477 2.73779297 C-20.03090411 3.19746133 -29.46223557 3.29325619 -39 2 C-39 1.67 -39 1.34 -39 1 C-35.05314076 0.85527413 -31.10620179 0.71296953 -27.15917969 0.57275391 C-25.16857531 0.5015585 -23.17803662 0.42853408 -21.1875 0.35546875 C-14.12135412 0.10565551 -7.07068378 -0.07506476 0 0 Z " fill="#0C473A" transform="translate(357,337)"/>
<path d="M0 0 C-11.82084833 3.87137481 -22.51945171 6.43452586 -35 6 C-35 5.67 -35 5.34 -35 5 C-33.69804688 4.80664062 -32.39609375 4.61328125 -31.0546875 4.4140625 C-29.32808288 4.15131832 -27.60152269 3.88828205 -25.875 3.625 C-24.59109375 3.43550781 -24.59109375 3.43550781 -23.28125 3.2421875 C-18.65659251 2.53070173 -14.41866195 1.59177508 -10 0 C-3.58695652 -1.19565217 -3.58695652 -1.19565217 0 0 Z " fill="#09996D" transform="translate(763,488)"/>
<path d="M0 0 C0.99 0.33 1.98 0.66 3 1 C5.06362991 1.15029988 7.13123915 1.24844448 9.19921875 1.31640625 C11.01196289 1.37924805 11.01196289 1.37924805 12.86132812 1.44335938 C14.12396484 1.48267578 15.38660156 1.52199219 16.6875 1.5625 C18.59885742 1.62727539 18.59885742 1.62727539 20.54882812 1.69335938 C23.69910852 1.7995486 26.84946839 1.90159533 30 2 C30 2.33 30 2.66 30 3 C14.49 3 -1.02 3 -17 3 C-17 2.67 -17 2.34 -17 2 C-15.85660156 1.93941406 -14.71320313 1.87882812 -13.53515625 1.81640625 C-12.04425695 1.73201572 -10.55337225 1.64736698 -9.0625 1.5625 C-8.30775391 1.52318359 -7.55300781 1.48386719 -6.77539062 1.44335938 C-3.08055813 1.55961976 -3.08055813 1.55961976 0 0 Z " fill="#048E63" transform="translate(525,273)"/>
<path d="M0 0 C10.89 0 21.78 0 33 0 C32.67 0.99 32.34 1.98 32 3 C31.01 3 30.02 3 29 3 C29 2.34 29 1.68 29 1 C28.38125 1.185625 27.7625 1.37125 27.125 1.5625 C25 2 25 2 23 1 C22.67 1.66 22.34 2.32 22 3 C22 2.34 22 1.68 22 1 C21.34 1 20.68 1 20 1 C19.67 1.66 19.34 2.32 19 3 C19 2.34 19 1.68 19 1 C12.73 1 6.46 1 0 1 C0 0.67 0 0.34 0 0 Z " fill="#09483A" transform="translate(580,333)"/>
<path d="M0 0 C1.2065625 0.0309375 1.2065625 0.0309375 2.4375 0.0625 C-0.15798859 3.95573289 -3.21701093 4.77370221 -7.4375 6.3125 C-8.15808594 6.59351563 -8.87867188 6.87453125 -9.62109375 7.1640625 C-13.38215409 8.56320465 -15.73700753 9.29912995 -19.5625 8.0625 C-18.41910156 7.56878906 -17.27570312 7.07507813 -16.09765625 6.56640625 C-14.606717 5.91939488 -13.1158345 5.2722527 -11.625 4.625 C-10.87025391 4.29951172 -10.11550781 3.97402344 -9.33789062 3.63867188 C-1.03047791 0.02513361 -1.03047791 0.02513361 0 0 Z " fill="#0D7357" transform="translate(538.5625,836.9375)"/>
<path d="M0 0 C-3.02790916 1.61677585 -6.04970423 2.69778298 -9.3125 3.75 C-14.654722 5.64054505 -17.96809363 8.05769154 -22 12 C-22 9 -22 9 -20.53125 7.5 C-14.06382408 2.7240547 -8.2640045 -0.61980034 0 0 Z " fill="#01CA93" transform="translate(696,437)"/>
<path d="M0 0 C13.69800182 3.42450045 13.69800182 3.42450045 17.5 7.875 C12.64929085 7.02056316 8.17228632 5.43998307 3.53515625 3.8125 C0.52752478 2.88350186 -2.38741742 2.32031733 -5.5 1.875 C-2.5 -0.125 -2.5 -0.125 0 0 Z " fill="#0C5242" transform="translate(514.5,167.125)"/>
<path d="M0 0 C0.33 0 0.66 0 1 0 C1.19656224 2.20754516 1.38185459 4.41609539 1.5625 6.625 C1.66691406 7.85476563 1.77132812 9.08453125 1.87890625 10.3515625 C1.99191061 13.75627462 1.69045563 16.67558398 1 20 C0.01 19.34 -0.98 18.68 -2 18 C-1.34 12.06 -0.68 6.12 0 0 Z " fill="#0D5E4B" transform="translate(612,803)"/>
<path d="M0 0 C0.33 0 0.66 0 1 0 C1.31382713 4.60279792 0.95945727 6.51206822 -2 10 C-3.39330829 12.30220473 -4.68897706 14.64920025 -6 17 C-6.33 16.34 -6.66 15.68 -7 15 C-5.92591043 12.39525962 -4.79954367 9.90033962 -3.5625 7.375 C-3.22412109 6.66859375 -2.88574219 5.9621875 -2.53710938 5.234375 C-1.69845121 3.48618616 -0.85012153 1.74264314 0 0 Z " fill="#00C993" transform="translate(830,355)"/>
<path d="M0 0 C1.32 0.66 2.64 1.32 4 2 C0.37 4.31 -3.26 6.62 -7 9 C-7.99 8.34 -8.98 7.68 -10 7 C-9.16855469 6.61908203 -9.16855469 6.61908203 -8.3203125 6.23046875 C-7.59585938 5.88628906 -6.87140625 5.54210937 -6.125 5.1875 C-5.40570312 4.85105469 -4.68640625 4.51460937 -3.9453125 4.16796875 C-1.69457194 3.00532903 -1.69457194 3.00532903 0 0 Z " fill="#10795C" transform="translate(570,881)"/>
<path d="M0 0 C0.66 0.33 1.32 0.66 2 1 C1.75 2.875 1.75 2.875 1 5 C-0.31403276 5.70394612 -1.6520257 6.36345658 -3 7 C-4.70496537 8.62746694 -6.37897032 10.28891311 -8 12 C-8.66 11.67 -9.32 11.34 -10 11 C-6.83451967 7.11098131 -3.59634744 3.49359465 0 0 Z " fill="#02C590" transform="translate(850,427)"/>
<path d="M0 0 C1.32 0.33 2.64 0.66 4 1 C3.34 1.66 2.68 2.32 2 3 C1.79443682 4.94088172 1.79443682 4.94088172 1.9375 7.125 C2.04461691 11.53107576 1.63400879 15.64118955 1 20 C0.67 20 0.34 20 0 20 C0 13.4 0 6.8 0 0 Z " fill="#0A6A54" transform="translate(557,334)"/>
<path d="M0 0 C5.02692063 0.45699278 8.14896261 2.99241748 12 6 C10.68 6.33 9.36 6.66 8 7 C8 6.34 8 5.68 8 5 C6.8553125 4.5978125 6.8553125 4.5978125 5.6875 4.1875 C3.12619116 3.05575888 1.80307062 2.08776599 0 0 Z " fill="#0D5041" transform="translate(360,281)"/>
<path d="M0 0 C3.3 1.65 6.6 3.3 10 5 C10 5.66 10 6.32 10 7 C5.49197399 5.74194623 2.5087188 4.09592835 -1 1 C-0.67 0.67 -0.34 0.34 0 0 Z " fill="#0A966E" transform="translate(459,887)"/>
<path d="M0 0 C0.66 0.33 1.32 0.66 2 1 C-0.64 3.64 -3.28 6.28 -6 9 C-6.66 8.34 -7.32 7.68 -8 7 C-7.01 6.67 -6.02 6.34 -5 6 C-5 5.34 -5 4.68 -5 4 C-4.34 4 -3.68 4 -3 4 C-3 3.34 -3 2.68 -3 2 C-2.01 1.34 -1.02 0.68 0 0 Z " fill="#049E72" transform="translate(802,397)"/>
<path d="M0 0 C0.33 0.99 0.66 1.98 1 3 C-1.31 5.31 -3.62 7.62 -6 10 C-6 6.41087588 -5.33563446 5.89142971 -3 3.3125 C-2.443125 2.68988281 -1.88625 2.06726563 -1.3125 1.42578125 C-0.879375 0.95527344 -0.44625 0.48476563 0 0 Z " fill="#01C892" transform="translate(438,310)"/>
<path d="M0 0 C0.99 0.33 1.98 0.66 3 1 C1.35 2.65 -0.3 4.3 -2 6 C-2 2 -2 2 0 0 Z " fill="#0F795D" transform="translate(584,869)"/>
<path d="M0 0 C0.66 0 1.32 0 2 0 C1.55090939 1.48199902 1.09043436 2.96055236 0.625 4.4375 C0.36976563 5.26121094 0.11453125 6.08492187 -0.1484375 6.93359375 C-1 9 -1 9 -3 10 C-2.39009109 6.44219804 -1.4216319 3.3171411 0 0 Z " fill="#0B4E3E" transform="translate(552,816)"/>
<path d="M0 0 C0.33 0.99 0.66 1.98 1 3 C0.00390625 4.82421875 0.00390625 4.82421875 -1.4375 6.6875 C-1.91058594 7.31011719 -2.38367188 7.93273437 -2.87109375 8.57421875 C-3.24363281 9.04472656 -3.61617187 9.51523437 -4 10 C-4.65234375 8.203125 -4.65234375 8.203125 -5 6 C-3.63510623 3.66629928 -1.8580962 1.99405446 0 0 Z " fill="#01C28E" transform="translate(822,372)"/>
<path d="M0 0 C1.32 0.66 2.64 1.32 4 2 C2.35 2.66 0.7 3.32 -1 4 C-1.66 3.34 -2.32 2.68 -3 2 C-2.01 1.34 -1.02 0.68 0 0 Z M-3 4 C-1 5 -1 5 -1 5 Z " fill="#03BB8A" transform="translate(776,417)"/>
<path d="M0 0 C0.33 0 0.66 0 1 0 C1 1.98 1 3.96 1 6 C0.67 6 0.34 6 0 6 C0 4.02 0 2.04 0 0 Z " fill="#1D8268" transform="translate(553,666)"/>
<path d="M0 0 C0.33 0 0.66 0 1 0 C1 1.98 1 3.96 1 6 C0.67 6 0.34 6 0 6 C0 4.02 0 2.04 0 0 Z " fill="#1D8269" transform="translate(553,611)"/>
<path d="M0 0 C1 4 1 4 1 4 Z " fill="#1C8068" transform="translate(553,706)"/>
<path d="M0 0 C1 4 1 4 1 4 Z " fill="#1D836A" transform="translate(553,475)"/>
<path d="M0 0 C0.66 0 1.32 0 2 0 C1.67 0.66 1.34 1.32 1 2 C0.67 1.34 0.34 0.68 0 0 Z " fill="#12B489" transform="translate(409,824)"/>
<path d="" fill="#12B688" transform="translate(0,0)"/>
<path d="" fill="#1C8268" transform="translate(0,0)"/>
<path d="" fill="#1C8469" transform="translate(0,0)"/>
<path d="" fill="#1C8269" transform="translate(0,0)"/>
<path d="" fill="#1D8169" transform="translate(0,0)"/>
<path d="" fill="#1D8269" transform="translate(0,0)"/>
<path d="" fill="#1D826A" transform="translate(0,0)"/>
<path d="" fill="#1E836A" transform="translate(0,0)"/>
<path d="" fill="#1E846B" transform="translate(0,0)"/>
<path d="" fill="#1D856B" transform="translate(0,0)"/>
<path d="" fill="#1D846B" transform="translate(0,0)"/>
<path d="" fill="#1E846B" transform="translate(0,0)"/>
<path d="M0 0 C3 1 3 1 3 1 Z " fill="#0ACE9C" transform="translate(728,432)"/>
<path d="" fill="#187560" transform="translate(0,0)"/>
<path d="" fill="#12B688" transform="translate(0,0)"/>
<path d="" fill="#1C8169" transform="translate(0,0)"/>
<path d="" fill="#1B8169" transform="translate(0,0)"/>
<path d="" fill="#1D8269" transform="translate(0,0)"/>
<path d="" fill="#1F8169" transform="translate(0,0)"/>
<path d="" fill="#1C8068" transform="translate(0,0)"/>
<path d="" fill="#1D7F66" transform="translate(0,0)"/>
<path d="" fill="#1D8169" transform="translate(0,0)"/>
<path d="" fill="#1E8269" transform="translate(0,0)"/>
<path d="" fill="#1C836A" transform="translate(0,0)"/>
<path d="" fill="#1C8168" transform="translate(0,0)"/>
<path d="" fill="#1C8169" transform="translate(0,0)"/>
<path d="" fill="#1C8269" transform="translate(0,0)"/>
<path d="" fill="#1C826B" transform="translate(0,0)"/>
<path d="" fill="#1C826A" transform="translate(0,0)"/>
<path d="" fill="#1E846A" transform="translate(0,0)"/>
<path d="" fill="#1D836B" transform="translate(0,0)"/>
<path d="" fill="#1E846B" transform="translate(0,0)"/>
<path d="" fill="#1D846A" transform="translate(0,0)"/>
<path d="M0 0 C2 1 2 1 2 1 Z " fill="#0FC391" transform="translate(788,479)"/>
<path d="" fill="#1E846A" transform="translate(0,0)"/>
<path d="" fill="#1F856A" transform="translate(0,0)"/>
<path d="" fill="#1D836D" transform="translate(0,0)"/>
<path d="" fill="#1F836A" transform="translate(0,0)"/>
<path d="" fill="#1D866B" transform="translate(0,0)"/>
<path d="" fill="#1C866B" transform="translate(0,0)"/>
<path d="M0 0 C2 1 2 1 2 1 Z " fill="#1A7561" transform="translate(179,278)"/>
<path d="M0 0 C2 1 2 1 2 1 Z " fill="#0EC191" transform="translate(854,273)"/>
<path d="M0 0 C2 1 2 1 2 1 Z " fill="#0EC492" transform="translate(791,273)"/>
<path d="" fill="#1B725E" transform="translate(0,0)"/>
<path d="M0 0 C2 1 2 1 2 1 Z " fill="#1B735F" transform="translate(139,222)"/>
<path d="" fill="#177862" transform="translate(0,0)"/>
<path d="" fill="#197461" transform="translate(0,0)"/>
<path d="" fill="#197560" transform="translate(0,0)"/>
<path d="" fill="#187461" transform="translate(0,0)"/>
<path d="" fill="#1E4437" transform="translate(0,0)"/>
<path d="" fill="#11B186" transform="translate(0,0)"/>
<path d="" fill="#15A07A" transform="translate(0,0)"/>
<path d="" fill="#1C9E7A" transform="translate(0,0)"/>
<path d="" fill="#13B78B" transform="translate(0,0)"/>
<path d="" fill="#15B689" transform="translate(0,0)"/>
<path d="" fill="#12B687" transform="translate(0,0)"/>
<path d="" fill="#198269" transform="translate(0,0)"/>
<path d="" fill="#13B286" transform="translate(0,0)"/>
<path d="" fill="#13B387" transform="translate(0,0)"/>
<path d="" fill="#18B78B" transform="translate(0,0)"/>
<path d="" fill="#14AE81" transform="translate(0,0)"/>
<path d="" fill="#1A9F7C" transform="translate(0,0)"/>
<path d="" fill="#169371" transform="translate(0,0)"/>
<path d="" fill="#11B78A" transform="translate(0,0)"/>
<path d="" fill="#12B589" transform="translate(0,0)"/>
<path d="" fill="#0EBF90" transform="translate(0,0)"/>
<path d="" fill="#1B8067" transform="translate(0,0)"/>
<path d="" fill="#1D8268" transform="translate(0,0)"/>
<path d="" fill="#1D8169" transform="translate(0,0)"/>
<path d="" fill="#1C8169" transform="translate(0,0)"/>
<path d="" fill="#1B826A" transform="translate(0,0)"/>
<path d="" fill="#1C8169" transform="translate(0,0)"/>
<path d="" fill="#1C816A" transform="translate(0,0)"/>
<path d="" fill="#1C826A" transform="translate(0,0)"/>
<path d="" fill="#1C816A" transform="translate(0,0)"/>
<path d="" fill="#1D8269" transform="translate(0,0)"/>
<path d="" fill="#1D8068" transform="translate(0,0)"/>
<path d="" fill="#1E826A" transform="translate(0,0)"/>
<path d="" fill="#1C806B" transform="translate(0,0)"/>
<path d="" fill="#1B836A" transform="translate(0,0)"/>
<path d="" fill="#1F816A" transform="translate(0,0)"/>
<path d="" fill="#1D8369" transform="translate(0,0)"/>
<path d="" fill="#1D8169" transform="translate(0,0)"/>
<path d="" fill="#1C7F68" transform="translate(0,0)"/>
<path d="" fill="#1B8269" transform="translate(0,0)"/>
<path d="" fill="#1D836B" transform="translate(0,0)"/>
<path d="" fill="#1D836A" transform="translate(0,0)"/>
<path d="" fill="#1E856A" transform="translate(0,0)"/>
<path d="" fill="#1C836B" transform="translate(0,0)"/>
<path d="" fill="#1D836B" transform="translate(0,0)"/>
<path d="" fill="#1D836A" transform="translate(0,0)"/>
<path d="" fill="#1D866B" transform="translate(0,0)"/>
<path d="" fill="#1C836C" transform="translate(0,0)"/>
<path d="" fill="#10BC8C" transform="translate(0,0)"/>
<path d="" fill="#1D8368" transform="translate(0,0)"/>
<path d="" fill="#0DC08D" transform="translate(0,0)"/>
<path d="" fill="#1D846A" transform="translate(0,0)"/>
<path d="" fill="#0EC090" transform="translate(0,0)"/>
<path d="" fill="#1E836B" transform="translate(0,0)"/>
<path d="" fill="#13BC90" transform="translate(0,0)"/>
<path d="" fill="#1D846A" transform="translate(0,0)"/>
<path d="" fill="#12BF8E" transform="translate(0,0)"/>
<path d="" fill="#1D846B" transform="translate(0,0)"/>
<path d="" fill="#1F836C" transform="translate(0,0)"/>
<path d="" fill="#1C846C" transform="translate(0,0)"/>
<path d="" fill="#1D836B" transform="translate(0,0)"/>
<path d="" fill="#1D856A" transform="translate(0,0)"/>
<path d="" fill="#0ACE9A" transform="translate(0,0)"/>
<path d="" fill="#1D866B" transform="translate(0,0)"/>
<path d="" fill="#1C846B" transform="translate(0,0)"/>
<path d="" fill="#12BE8F" transform="translate(0,0)"/>
<path d="" fill="#1C856D" transform="translate(0,0)"/>
<path d="" fill="#1D846C" transform="translate(0,0)"/>
<path d="" fill="#1F856C" transform="translate(0,0)"/>
<path d="" fill="#1E866A" transform="translate(0,0)"/>
<path d="" fill="#1C886D" transform="translate(0,0)"/>
<path d="" fill="#12BE91" transform="translate(0,0)"/>
<path d="" fill="#1D8B70" transform="translate(0,0)"/>
<path d="" fill="#1D7E68" transform="translate(0,0)"/>
<path d="" fill="#1E7A65" transform="translate(0,0)"/>
<path d="" fill="#1D856E" transform="translate(0,0)"/>
<path d="" fill="#15B087" transform="translate(0,0)"/>
<path d="" fill="#197B66" transform="translate(0,0)"/>
<path d="" fill="#1A7662" transform="translate(0,0)"/>
<path d="" fill="#197662" transform="translate(0,0)"/>
<path d="" fill="#1B7461" transform="translate(0,0)"/>
<path d="" fill="#0EC08F" transform="translate(0,0)"/>
<path d="" fill="#1F8B71" transform="translate(0,0)"/>
<path d="" fill="#1B7361" transform="translate(0,0)"/>
<path d="" fill="#1A715F" transform="translate(0,0)"/>
<path d="" fill="#0EC796" transform="translate(0,0)"/>
<path d="" fill="#17725E" transform="translate(0,0)"/>
<path d="" fill="#197560" transform="translate(0,0)"/>
<path d="" fill="#177F66" transform="translate(0,0)"/>
<path d="" fill="#187560" transform="translate(0,0)"/>
<path d="" fill="#1B7460" transform="translate(0,0)"/>
<path d="" fill="#1A7D67" transform="translate(0,0)"/>
<path d="" fill="#1B7D66" transform="translate(0,0)"/>
<path d="" fill="#1C7B65" transform="translate(0,0)"/>
<path d="" fill="#11C191" transform="translate(0,0)"/>
<path d="" fill="#1B6E5E" transform="translate(0,0)"/>
<path d="" fill="#18AE84" transform="translate(0,0)"/>
<path d="" fill="#11BB8C" transform="translate(0,0)"/>
<path d="" fill="#0DC490" transform="translate(0,0)"/>
<path d="" fill="#0EC592" transform="translate(0,0)"/>
<path d="" fill="#11BE90" transform="translate(0,0)"/>
<path d="" fill="#197D65" transform="translate(0,0)"/>
<path d="" fill="#0EC292" transform="translate(0,0)"/>
<path d="" fill="#177A64" transform="translate(0,0)"/>
<path d="" fill="#1B735F" transform="translate(0,0)"/>
<path d="" fill="#197A66" transform="translate(0,0)"/>
<path d="" fill="#167966" transform="translate(0,0)"/>
<path d="" fill="#197360" transform="translate(0,0)"/>
<path d="" fill="#1B7B65" transform="translate(0,0)"/>
<path d="" fill="#1B7C64" transform="translate(0,0)"/>
<path d="" fill="#1B735E" transform="translate(0,0)"/>
<path d="" fill="#1E886E" transform="translate(0,0)"/>
<path d="" fill="#19745F" transform="translate(0,0)"/>
<path d="" fill="#177662" transform="translate(0,0)"/>
<path d="" fill="#197A63" transform="translate(0,0)"/>
<path d="" fill="#1B7A67" transform="translate(0,0)"/>
<path d="" fill="#1B735E" transform="translate(0,0)"/>
<path d="" fill="#1C725E" transform="translate(0,0)"/>
<path d="" fill="#1D725D" transform="translate(0,0)"/>
<path d="" fill="#1C725F" transform="translate(0,0)"/>
<path d="" fill="#197A69" transform="translate(0,0)"/>
<path d="" fill="#1A755F" transform="translate(0,0)"/>
<path d="" fill="#197963" transform="translate(0,0)"/>
<path d="" fill="#197B66" transform="translate(0,0)"/>
<path d="" fill="#1C826B" transform="translate(0,0)"/>
<path d="" fill="#1C7661" transform="translate(0,0)"/>
<path d="" fill="#1C8069" transform="translate(0,0)"/>
<path d="" fill="#1B7360" transform="translate(0,0)"/>
<path d="" fill="#1B7461" transform="translate(0,0)"/>
<path d="" fill="#1C725F" transform="translate(0,0)"/>
<path d="" fill="#1B7A62" transform="translate(0,0)"/>
<path d="" fill="#1D7461" transform="translate(0,0)"/>
<path d="" fill="#1C7D68" transform="translate(0,0)"/>
<path d="" fill="#1C7E67" transform="translate(0,0)"/>
<path d="" fill="#1B7260" transform="translate(0,0)"/>
<path d="" fill="#1A7360" transform="translate(0,0)"/>
<path d="" fill="#167860" transform="translate(0,0)"/>
<path d="" fill="#177D66" transform="translate(0,0)"/>
<path d="" fill="#187B65" transform="translate(0,0)"/>
<path d="" fill="#1A725F" transform="translate(0,0)"/>
<path d="" fill="#1A735F" transform="translate(0,0)"/>
<path d="" fill="#1D7C66" transform="translate(0,0)"/>
<path d="" fill="#1B7961" transform="translate(0,0)"/>
<path d="" fill="#1A7865" transform="translate(0,0)"/>
<path d="" fill="#1A8167" transform="translate(0,0)"/>
<path d="" fill="#1A8066" transform="translate(0,0)"/>
<path d="" fill="#1B7460" transform="translate(0,0)"/>
<path d="" fill="#1C725F" transform="translate(0,0)"/>
<path d="" fill="#187561" transform="translate(0,0)"/>
<path d="" fill="#1B7460" transform="translate(0,0)"/>
<path d="" fill="#1F7962" transform="translate(0,0)"/>
<path d="" fill="#19745E" transform="translate(0,0)"/>
<path d="" fill="#1B7961" transform="translate(0,0)"/>
<path d="" fill="#1D755F" transform="translate(0,0)"/>
<path d="" fill="#1A7660" transform="translate(0,0)"/>
<path d="" fill="#197662" transform="translate(0,0)"/>
<path d="" fill="#187661" transform="translate(0,0)"/>
<path d="" fill="#19765F" transform="translate(0,0)"/>
<path d="" fill="#187863" transform="translate(0,0)"/>
<path d="" fill="#1E6C5B" transform="translate(0,0)"/>
</svg>
